<svg xmlns="http://www.w3.org/2000/svg" height="303pt" version="1.1" viewBox="1 1 303.874 303" width="303pt">
<g id="surface1">
<path d="M 285.757812 268.96875 C 276.457031 242.121094 268.976562 214.679688 263.371094 186.824219 C 240.535156 81.859375 215.707031 30.835938 187.464844 30.835938 C 182.074219 30.949219 176.847656 32.71875 172.496094 35.902344 C 161.183594 15.570312 149.328125 5.503906 136.800781 5.503906 C 108.558594 5.503906 83.730469 56.527344 60.917969 161.492188 C 50.363281 210.03125 41.683594 236.710938 35.46875 251.390625 L 35.46875 0.4375 L 25.332031 0.4375 L 25.332031 25.769531 L 10.132812 25.769531 L 10.132812 35.902344 L 25.332031 35.902344 L 25.332031 46.039062 L 10.132812 46.039062 L 10.132812 56.171875 L 25.332031 56.171875 L 25.332031 71.371094 L 10.132812 71.371094 L 10.132812 81.503906 L 25.332031 81.503906 L 25.332031 96.703125 L 10.132812 96.703125 L 10.132812 106.839844 L 25.332031 106.839844 L 25.332031 122.039062 L 10.132812 122.039062 L 10.132812 132.171875 L 25.332031 132.171875 L 25.332031 147.371094 L 10.132812 147.371094 L 10.132812 157.503906 L 25.332031 157.503906 L 25.332031 172.703125 L 10.132812 172.703125 L 10.132812 182.835938 L 25.332031 182.835938 L 25.332031 198.039062 L 10.132812 198.039062 L 10.132812 208.171875 L 25.332031 208.171875 L 25.332031 223.371094 L 10.132812 223.371094 L 10.132812 233.503906 L 25.332031 233.503906 L 25.332031 248.707031 L 10.132812 248.707031 L 10.132812 258.839844 L 25.332031 258.839844 L 25.332031 268.765625 C 25.226562 268.851562 25.136719 268.921875 25.0625 268.972656 L 0 268.972656 L 0 279.105469 L 25.332031 279.105469 L 25.332031 304.4375 L 35.464844 304.4375 L 35.464844 279.105469 L 50.667969 279.105469 L 50.667969 299.371094 L 60.800781 299.371094 L 60.800781 279.105469 L 76 279.105469 L 76 299.371094 L 86.132812 299.371094 L 86.132812 279.105469 L 101.335938 279.105469 L 101.335938 299.371094 L 111.46875 299.371094 L 111.46875 279.105469 L 126.667969 279.105469 L 126.667969 299.371094 L 136.800781 299.371094 L 136.800781 279.105469 L 152 279.105469 L 152 299.371094 L 162.136719 299.371094 L 162.136719 279.105469 L 177.335938 279.105469 L 177.335938 299.371094 L 187.46875 299.371094 L 187.46875 279.105469 L 202.667969 279.105469 L 202.667969 299.371094 L 212.800781 299.371094 L 212.800781 279.105469 L 228.003906 279.105469 L 228.003906 299.371094 L 238.136719 299.371094 L 238.136719 279.105469 L 247.710938 279.105469 C 247.792969 279.105469 247.894531 279.140625 247.96875 279.140625 C 248.046875 279.140625 248.238281 279.140625 248.375 279.105469 L 253.335938 279.105469 L 253.335938 299.371094 L 263.46875 299.371094 L 263.46875 279.105469 L 278.667969 279.105469 L 278.667969 299.371094 L 288.800781 299.371094 L 288.800781 279.105469 L 304.003906 279.105469 L 304.003906 268.972656 L 285.757812 268.972656 Z M 37.910156 268.96875 C 50.375 248.953125 62.34375 202.597656 70.84375 163.648438 C 99.859375 30.0625 126.636719 15.636719 136.800781 15.636719 C 142.15625 15.636719 152.121094 19.691406 164.597656 42.996094 C 145.695312 63.71875 127.871094 112.019531 111.582031 186.847656 C 105.96875 214.695312 98.480469 242.132812 89.175781 268.96875 Z M 100 268.96875 C 108.789062 242.773438 115.964844 216.058594 121.484375 188.984375 C 139.722656 105.199219 156.949219 68.589844 169.476562 52.820312 C 179.5625 74.78125 190.984375 109.378906 202.78125 163.648438 C 211.28125 202.597656 223.226562 248.953125 235.691406 268.96875 Z M 248.554688 268.96875 C 246.261719 267.378906 232.898438 254.472656 212.683594 161.492188 C 201.40625 109.601562 189.628906 70.917969 177.214844 45.039062 C 180.097656 42.601562 183.699219 41.175781 187.464844 40.96875 C 197.628906 40.96875 224.40625 55.394531 253.449219 188.976562 C 258.96875 216.054688 266.140625 242.769531 274.933594 268.96875 Z M 248.554688 268.96875 " style=" stroke:none;fill-rule:nonzero;fill:rgb(13.72549%,12.156863%,12.54902%);fill-opacity:1;" />
</g>
</svg>