<svg xmlns="http://www.w3.org/2000/svg" viewBox="0 0 49.41 50">
  <defs>
    <style>
      .cls-1 {
        fill: #707070;
      }

      .cls-2 {
        fill: none;
        stroke: #707070;
      }
    </style>
  </defs>
  <g id="highlighter" transform="translate(-3.021 0)">
    <g id="Group_172" data-name="Group 172" transform="translate(3.021 0)">
      <path id="Path_204" data-name="Path 204" class="cls-1" d="M9.643,444.291,5.877,447.42,3.5,446.23a.863.863,0,0,1-.207-1.4l3.448-3.448Z" transform="translate(-3.021 -398.282)"/>
      <path id="Path_205" data-name="Path 205" class="cls-1" d="M111.076,10.952,83.1,43.276,68.45,28.623,100.49.418a1.725,1.725,0,0,1,2.353.095l8.111,8.111A1.724,1.724,0,0,1,111.076,10.952Z" transform="translate(-62.06 0)"/>
    </g>
    <path id="Path_206" data-name="Path 206" class="cls-2" d="M52.668,308.068l-1.215,1.224a1.724,1.724,0,0,1-2.438,0l0,0a14.321,14.321,0,0,0-3.388-.388,10.766,10.766,0,0,0-7.017,2.31.862.862,0,0,1-1.146-.06l-2.491-2.5a.862.862,0,0,1-.069-1.138c3.6-4.31,1.931-10.4,1.931-10.4a1.738,1.738,0,0,1,0-2.439l1.215-1.224Z" transform="translate(-28.604 -264.792)"/>
    <path id="Path_207" data-name="Path 207" class="cls-1" d="M51.879,496.071H24.3a.862.862,0,0,1,0-1.724H51.879a.862.862,0,0,1,0,1.724Z" transform="translate(-18.418 -446.071)"/>
  </g>
</svg>
