<svg id="unnaxis" xmlns="http://www.w3.org/2000/svg" viewBox="0 0 470 470">
  <defs>
    <style>
      .cls-1 {
        fill: #30a53d;
      }
    </style>
  </defs>
  <path id="Path_15" data-name="Path 15" class="cls-1" d="M462.5,197.5a7.5,7.5,0,1,0,0-15c-96.5,0-175-78.5-175-175a7.5,7.5,0,1,0-15,0C272.5,112.267,357.733,197.5,462.5,197.5Z"/>
  <path id="Path_16" data-name="Path 16" class="cls-1" d="M7.5,272.5a7.5,7.5,0,0,0,0,15c96.5,0,175,78.5,175,175a7.5,7.5,0,1,0,15,0C197.5,357.733,112.267,272.5,7.5,272.5Z"/>
  <path id="Path_17" data-name="Path 17" d="M250,318.333a7.5,7.5,0,1,0,0-15h-7.5V166.667H250a7.5,7.5,0,0,0,0-15h-7.5V90.833H250a7.5,7.5,0,0,0,0-15h-7.5V15H250a7.5,7.5,0,0,0,0-15H220a7.5,7.5,0,0,0,0,15h7.5V75.833H220a7.5,7.5,0,0,0,0,15h7.5v60.833H220a7.5,7.5,0,0,0,0,15h7.5V227.5H166.667V220a7.5,7.5,0,1,0-15,0v7.5H90.833V220a7.5,7.5,0,0,0-15,0v7.5H15V220a7.5,7.5,0,1,0-15,0v30a7.5,7.5,0,0,0,15,0v-7.5H75.833V250a7.5,7.5,0,0,0,15,0v-7.5h60.834V250a7.5,7.5,0,0,0,15,0v-7.5H227.5v60.833H220a7.5,7.5,0,0,0,0,15h7.5v60.833H220a7.5,7.5,0,0,0,0,15h7.5V455H220a7.5,7.5,0,0,0,0,15h30a7.5,7.5,0,1,0,0-15h-7.5V394.167H250a7.5,7.5,0,1,0,0-15h-7.5V318.334H250Z"/>
  <path id="Path_18" data-name="Path 18" d="M462.5,212.5A7.5,7.5,0,0,0,455,220v7.5H394.167V220a7.5,7.5,0,1,0-15,0v7.5H318.333V220a7.5,7.5,0,1,0-15,0v7.5H265a7.5,7.5,0,0,0,0,15h38.333V250a7.5,7.5,0,0,0,15,0v-7.5h60.834V250a7.5,7.5,0,0,0,15,0v-7.5H455V250a7.5,7.5,0,0,0,15,0V220a7.5,7.5,0,0,0-7.5-7.5Z"/>
</svg>
