<svg xmlns="http://www.w3.org/2000/svg" height="358pt" version="1.1" viewBox="0 0 358 358.062" width="358pt">
<g id="surface1">
<path d="M 30.597656 322.199219 L 29.863281 322.199219 C 30.105469 322.25 30.355469 322.25 30.597656 322.199219 Z M 30.597656 322.199219 " style=" stroke:none;fill-rule:nonzero;fill:rgb(0%,84.313725%,87.45098%);fill-opacity:1;" />
<path d="M 292.398438 322.199219 L 291.664062 322.199219 C 291.90625 322.25 292.15625 322.25 292.398438 322.199219 Z M 292.398438 322.199219 " style=" stroke:none;fill-rule:nonzero;fill:rgb(0%,84.313725%,87.45098%);fill-opacity:1;" />
<path d="M 30.597656 322.199219 L 35.832031 322.199219 L 35.832031 318.40625 C 34.566406 320.226562 32.722656 321.5625 30.597656 322.199219 Z M 30.597656 322.199219 " style=" stroke:none;fill-rule:nonzero;fill:rgb(0%,84.313725%,87.45098%);fill-opacity:1;" />
<path d="M 201.167969 51.074219 L 201.199219 51.074219 C 186.832031 22.675781 173.214844 11.933594 161.132812 11.933594 C 137.265625 11.933594 107.429688 53.699219 77.597656 190.933594 C 57.910156 281.554688 43.410156 309.71875 35.832031 318.40625 L 35.832031 322.199219 L 109.222656 322.199219 C 121.105469 289.140625 130.476562 255.234375 137.265625 220.765625 C 159.398438 119.09375 181.476562 69.808594 201.167969 51.074219 Z M 201.167969 51.074219 " style=" stroke:none;fill-rule:nonzero;fill:rgb(100%,92.156863%,60%);fill-opacity:1;" />
<path d="M 244.664062 190.933594 C 229.933594 123.175781 215.207031 78.726562 201.195312 51.050781 L 201.167969 51.050781 C 181.476562 69.808594 159.398438 119.09375 137.261719 220.765625 C 130.476562 255.234375 121.101562 289.140625 109.21875 322.199219 L 291.664062 322.199219 C 288.035156 321.601562 271.007812 312.105469 244.664062 190.933594 Z M 244.664062 190.933594 " style=" stroke:none;fill-rule:nonzero;fill:rgb(100%,31.372549%,13.72549%);fill-opacity:1;" />
<path d="M 220.796875 41.765625 C 213.300781 42.1875 206.269531 45.519531 201.195312 51.050781 C 215.207031 78.722656 229.933594 123.175781 244.664062 190.933594 C 271.007812 312.105469 288.035156 321.605469 291.664062 322.199219 L 332.375 322.199219 C 320.492188 289.140625 311.117188 255.234375 304.332031 220.765625 C 274.496094 83.53125 244.664062 41.765625 220.796875 41.765625 Z M 220.796875 41.765625 " style=" stroke:none;fill-rule:nonzero;fill:rgb(0%,84.313725%,87.45098%);fill-opacity:1;" />
<path d="M 336.550781 316.234375 C 325.597656 284.617188 316.789062 252.296875 310.183594 219.496094 C 283.292969 95.882812 254.054688 35.800781 220.796875 35.800781 C 214.445312 35.929688 208.292969 38.015625 203.164062 41.765625 C 189.847656 17.820312 175.886719 5.96875 161.128906 5.96875 C 127.871094 5.96875 98.636719 66.050781 71.765625 189.664062 C 59.339844 246.824219 49.117188 278.242188 41.796875 295.53125 L 41.796875 0 L 29.863281 0 L 29.863281 29.832031 L 11.964844 29.832031 L 11.964844 41.765625 L 29.863281 41.765625 L 29.863281 53.699219 L 11.964844 53.699219 L 11.964844 65.632812 L 29.863281 65.632812 L 29.863281 83.53125 L 11.964844 83.53125 L 11.964844 95.464844 L 29.863281 95.464844 L 29.863281 113.367188 L 11.964844 113.367188 L 11.964844 125.296875 L 29.863281 125.296875 L 29.863281 143.199219 L 11.964844 143.199219 L 11.964844 155.128906 L 29.863281 155.128906 L 29.863281 173.03125 L 11.964844 173.03125 L 11.964844 184.964844 L 29.863281 184.964844 L 29.863281 202.867188 L 11.964844 202.867188 L 11.964844 214.800781 L 29.863281 214.800781 L 29.863281 232.699219 L 11.964844 232.699219 L 11.964844 244.632812 L 29.863281 244.632812 L 29.863281 262.53125 L 11.964844 262.53125 L 11.964844 274.464844 L 29.863281 274.464844 L 29.863281 292.363281 L 11.964844 292.363281 L 11.964844 304.296875 L 29.863281 304.296875 L 29.863281 315.984375 C 29.738281 316.085938 29.628906 316.171875 29.542969 316.230469 L 0.03125 316.230469 L 0.03125 328.164062 L 29.863281 328.164062 L 29.863281 357.996094 L 41.796875 357.996094 L 41.796875 328.164062 L 59.695312 328.164062 L 59.695312 352.03125 L 71.628906 352.03125 L 71.628906 328.164062 L 89.527344 328.164062 L 89.527344 352.03125 L 101.460938 352.03125 L 101.460938 328.164062 L 119.363281 328.164062 L 119.363281 352.03125 L 131.292969 352.03125 L 131.292969 328.164062 L 149.195312 328.164062 L 149.195312 352.03125 L 161.125 352.03125 L 161.125 328.164062 L 179.027344 328.164062 L 179.027344 352.03125 L 190.960938 352.03125 L 190.960938 328.164062 L 208.859375 328.164062 L 208.859375 352.03125 L 220.792969 352.03125 L 220.792969 328.164062 L 238.691406 328.164062 L 238.691406 352.03125 L 250.625 352.03125 L 250.625 328.164062 L 268.523438 328.164062 L 268.523438 352.03125 L 280.457031 352.03125 L 280.457031 328.164062 L 291.734375 328.164062 C 291.828125 328.164062 291.949219 328.207031 292.039062 328.207031 C 292.128906 328.207031 292.355469 328.207031 292.515625 328.164062 L 298.355469 328.164062 L 298.355469 352.03125 L 310.289062 352.03125 L 310.289062 328.164062 L 328.1875 328.164062 L 328.1875 352.03125 L 340.121094 352.03125 L 340.121094 328.164062 L 358.019531 328.164062 L 358.019531 316.234375 Z M 44.675781 316.234375 C 59.351562 292.65625 73.449219 238.070312 83.457031 192.203125 C 117.628906 34.886719 149.160156 17.898438 161.128906 17.898438 C 167.4375 17.898438 179.171875 22.671875 193.863281 50.121094 C 171.609375 74.523438 150.617188 131.402344 131.433594 219.523438 C 124.824219 252.316406 116.007812 284.628906 105.046875 316.234375 Z M 117.792969 316.234375 C 128.144531 285.382812 136.59375 253.921875 143.09375 222.035156 C 164.574219 123.371094 184.859375 80.257812 199.609375 61.6875 C 211.488281 87.546875 224.9375 128.292969 238.832031 192.203125 C 248.839844 238.070312 262.910156 292.65625 277.585938 316.230469 L 117.792969 316.230469 Z M 292.738281 316.234375 C 290.035156 314.359375 274.300781 299.160156 250.492188 189.660156 C 237.210938 128.558594 223.34375 83 208.726562 52.523438 C 212.121094 49.65625 216.359375 47.972656 220.796875 47.730469 C 232.765625 47.730469 264.300781 64.71875 298.5 222.03125 C 305 253.917969 313.449219 285.378906 323.800781 316.234375 Z M 292.738281 316.234375 " style=" stroke:none;fill-rule:nonzero;fill:rgb(13.72549%,12.156863%,12.54902%);fill-opacity:1;" />
</g>
</svg>