<svg xmlns="http://www.w3.org/2000/svg" viewBox="0 0 404.763 395.654">
  <defs>
    <style>
      .cls-1 {
        fill: #2442e3;
      }

      .cls-2 {
        fill: #5e28f0;
      }

      .cls-3 {
        fill: #f0b23e;
      }

      .cls-4 {
        fill: #b91616;
      }

      .cls-5 {
        fill: #148934;
      }

      .cls-6 {
        fill: #1f9cb2;
      }
    </style>
  </defs>
  <g id="practice" transform="translate(0 -4.555)">
    <g id="Group_1" data-name="Group 1">
      <path id="Path_1" data-name="Path 1" class="cls-1" d="M197.77,219.758A185,185,0,0,0,216.1,172.216l14.567,11.948.48-.709-9.229-38.616q-1.449-19.686-2.89-39.387-6.962,18.481-13.9,36.96l-19.774,34.426.391.839,15.22-6.494c-5.043,14.118-10.846,27.888-17.058,41.553a284.952,284.952,0,0,1-32.038,53.711A396.584,396.584,0,0,1,109.937,313.7c-15.22,14.663-31.512,28.473-49.167,40.271l.785,1.362c18.763-10.423,36.255-22.942,52.914-36.567a363.035,363.035,0,0,0,45.994-45.469A346.87,346.87,0,0,0,197.77,219.758Z"/>
      <path id="Path_2" data-name="Path 2" class="cls-2" d="M119.094,340.65a302.586,302.586,0,0,1-30.286,7.674l.21,1.547a296.667,296.667,0,0,0,31.08-5.39Z"/>
      <path id="Path_3" data-name="Path 3" class="cls-2" d="M150.691,336.435c9.979-3.03,20.121-6.48,29.912-10.38l-3.362-7.83c-9.47,4.332-18.863,8.411-28.669,12.23Z"/>
      <path id="Path_4" data-name="Path 4" class="cls-2" d="M204.889,304.183l4.829,9.112c9.352-4.516,18.945-9.605,28.05-14.9L231.4,288.112C222.712,293.831,214.1,299.069,204.889,304.183Z"/>
      <path id="Path_5" data-name="Path 5" class="cls-2" d="M279.734,249.926c-3.787,3.45-7.674,6.784-11.529,10.167q-5.693,4.953-11.874,9.935l8.492,11.284c4.288-2.929,8.64-6.011,13.012-9.244,4.276-3.215,8.4-6.608,12.527-10.02Z"/>
      <path id="Path_6" data-name="Path 6" class="cls-2" d="M355.362,171.469q-14.715,13.155-29.438,26.322l-33.462,21.362-.04.913,17.272,1.354c-2.469,2.517-4.957,5.037-7.594,7.59l11.221,10.52c2.829-3.258,5.714-6.668,8.579-10.166l7.338,17.243.766-.4,9.689-38.491Q347.526,189.591,355.362,171.469Z"/>
      <path id="Path_7" data-name="Path 7" class="cls-3" d="M61.626,371.122a3.9,3.9,0,0,0-4.354-3.434l-21.911,2.584c-2.881-9.75-4.005-18.638-.839-22.361a3.921,3.921,0,1,0-5.983-5.069c-5.394,6.348-4.254,17.581-1.208,28.365l-14.75,1.751a3.923,3.923,0,0,0,.445,7.819,2.992,2.992,0,0,0,.463-.032l16.276-1.915a164.357,164.357,0,0,0,8.476,19.279,3.926,3.926,0,1,0,6.949-3.654,145.5,145.5,0,0,1-7.3-16.583l20.285-2.4A3.9,3.9,0,0,0,61.626,371.122Z"/>
      <path id="Path_8" data-name="Path 8" class="cls-4" d="M378.477,140.309c-2.89-9.748-4.008-18.626-.842-22.347a3.922,3.922,0,1,0-5.978-5.08c-5.4,6.352-4.256,17.583-1.215,28.377L355.7,143a3.923,3.923,0,0,0,.445,7.819,4.69,4.69,0,0,0,.473-.022l16.278-1.917a160.431,160.431,0,0,0,8.476,19.274,3.926,3.926,0,0,0,3.467,2.106,3.973,3.973,0,0,0,1.823-.449,3.926,3.926,0,0,0,1.65-5.3,147.343,147.343,0,0,1-7.3-16.579l20.285-2.4a3.923,3.923,0,0,0-.915-7.792Z"/>
      <path id="Path_9" data-name="Path 9" class="cls-4" d="M150.99,211.61a3.931,3.931,0,0,0-4.358-3.434l-21.911,2.58c-2.879-9.75-4-18.628-.839-22.345a3.923,3.923,0,1,0-5.979-5.08c-5.394,6.348-4.26,17.583-1.212,28.375l-14.741,1.735a3.923,3.923,0,0,0,.454,7.819,3.124,3.124,0,0,0,.473-.032l16.264-1.915a164.169,164.169,0,0,0,8.478,19.287,3.923,3.923,0,0,0,6.946-3.647,146.323,146.323,0,0,1-7.3-16.6l20.286-2.385A3.919,3.919,0,0,0,150.99,211.61Z"/>
      <path id="Path_10" data-name="Path 10" class="cls-3" d="M257.1,34.22a3.945,3.945,0,0,0-4.36-3.438l-21.912,2.585c-2.89-9.752-4-18.637-.834-22.352A3.927,3.927,0,0,0,224,5.936c-5.386,6.344-4.252,17.583-1.2,28.377L208.056,36.05a3.922,3.922,0,0,0,.446,7.818,4.653,4.653,0,0,0,.471-.022l16.262-1.917a165.926,165.926,0,0,0,8.479,19.281,3.907,3.907,0,0,0,3.475,2.1A3.866,3.866,0,0,0,239,62.867a3.93,3.93,0,0,0,1.659-5.3,148.061,148.061,0,0,1-7.3-16.6l20.286-2.4A3.916,3.916,0,0,0,257.1,34.22Z"/>
      <path id="Path_11" data-name="Path 11" class="cls-5" d="M6.463,294.873a21.81,21.81,0,0,0-.18,30.813,21.345,21.345,0,0,0,15.222,6.283,22.1,22.1,0,0,0,22.051-21.876,21.359,21.359,0,0,0-6.285-15.4C29.1,286.51,14.755,286.6,6.463,294.873Zm25.266,5.366a13.556,13.556,0,0,1,3.985,9.782,14.109,14.109,0,0,1-4.178,9.931c-5.312,5.306-14.5,5.4-19.7.184a13.96,13.96,0,0,1,.181-19.712,14.11,14.11,0,0,1,10.022-4.168A13.648,13.648,0,0,1,31.729,300.239Z"/>
      <path id="Path_12" data-name="Path 12" class="cls-5" d="M170.52,173.519a21.8,21.8,0,0,0,.188-30.808c-8.187-8.187-22.543-8.083-30.811.188a21.919,21.919,0,0,0-6.47,15.413,21.47,21.47,0,0,0,21.52,21.681A21.926,21.926,0,0,0,170.52,173.519Zm-29.25-15.161a14.26,14.26,0,0,1,14.2-14.091,13.553,13.553,0,0,1,9.678,3.985,13.952,13.952,0,0,1-.188,19.708c-5.32,5.312-14.489,5.392-19.7.179A13.6,13.6,0,0,1,141.27,158.358Z"/>
      <path id="Path_13" data-name="Path 13" class="cls-2" d="M275.234,209.764a21.807,21.807,0,0,0,.192-30.8c-8.188-8.179-22.53-8.087-30.817.188a21.8,21.8,0,0,0-.176,30.8,21.35,21.35,0,0,0,15.224,6.295A21.857,21.857,0,0,0,275.234,209.764ZM250.16,184.7a14.134,14.134,0,0,1,10.034-4.178,13.6,13.6,0,0,1,9.674,3.989,13.951,13.951,0,0,1-.192,19.7c-5.31,5.3-14.495,5.4-19.7.181A13.947,13.947,0,0,1,250.16,184.7Z"/>
      <path id="Path_14" data-name="Path 14" class="cls-6" d="M312.058,128.164a21.889,21.889,0,0,0,6.46-15.408,21.336,21.336,0,0,0-6.283-15.395c-8.16-8.179-22.519-8.089-30.8.18a21.893,21.893,0,0,0-6.472,15.409,21.476,21.476,0,0,0,21.527,21.687A21.827,21.827,0,0,0,312.058,128.164Zm-29.242-15.148a14.251,14.251,0,0,1,14.2-14.084,13.621,13.621,0,0,1,13.661,13.777,14.085,14.085,0,0,1-4.168,9.913c-5.321,5.316-14.49,5.394-19.7.184A13.657,13.657,0,0,1,282.816,113.016Z"/>
    </g>
  </g>
</svg>
