<svg xmlns="http://www.w3.org/2000/svg" viewBox="0 0 240.602 21.524">
  <defs>
    <style>
      .cls-1 {
        fill: #31c3e8;
        font-size: 18px;
        font-family: GillSans-Light, Gill Sans;
        font-weight: 300;
      }

      .cls-2 {
        fill: #00adef;
      }

      .cls-3 {
        fill: #a80030;
      }

      .cls-4 {
        fill: #ff6309;
      }

      .cls-5 {
        fill: #ffb515;
      }

      .cls-6 {
        fill: #c90016;
      }
    </style>
  </defs>
  <g id="Group_21" data-name="Group 21" transform="translate(-138 -503)">
    <text id="View_all_versions_" data-name="View all versions
" class="cls-1" transform="translate(138 503)"><tspan x="0" y="16">View all versions</tspan></text>
    <path id="microsoft-windows-22" class="cls-2" d="M0,2.938,8.454,1.787l0,8.154L.008,9.989,0,2.938ZM8.449,10.88l.006,8.161L.007,17.879V10.825l8.443.055ZM9.474,1.636,20.683,0V9.837L9.474,9.926V1.636Zm11.211,9.321,0,9.792L9.474,19.167l-.016-8.229Z" transform="translate(265 503.251)"/>
    <g id="debian-2" transform="translate(361.08 503)">
      <path id="Path_4" data-name="Path 4" class="cls-3" d="M134.205,14.912c-.348,0,.066.179.52.249q.177-.138.341-.294a2.6,2.6,0,0,1-.861.044m1.868-.466a2.21,2.21,0,0,0,.412-.923,2.254,2.254,0,0,1-.29.64c-.65.41-.061-.243,0-.491-.7.88-.1.528-.121.774m.689-1.794c.042-.627-.123-.428-.179-.189.065.034.116.442.179.189m-3.876-8.565c.186.033.4.059.371.1.2-.045.249-.086-.371-.1m.371.1-.131.027.122-.011.009-.016" transform="translate(-123.472 -3.817)"/>
      <path id="Path_5" data-name="Path 5" class="cls-3" d="M17.261,11.182a3.1,3.1,0,0,1-.332,1.319l-.3.15c-.246.478.024.3-.152.684a8.307,8.307,0,0,1-1.416,1.135c-.183,0,.124-.216.164-.3-.514.353-.413.53-1.2.745L14,14.866c-1.94.913-4.635-.9-4.6-3.364-.021.157-.059.118-.1.181a3.107,3.107,0,0,1,1.744-3.066,2.943,2.943,0,0,1,3.271.425A2.916,2.916,0,0,0,11.932,7.9,2.694,2.694,0,0,0,9.618,9.279c-.527.332-.589,1.28-.819,1.454-.309,2.273.582,3.255,2.089,4.41.237.16.067.184.1.306a4.089,4.089,0,0,1-1.336-1.022,3.588,3.588,0,0,0,.695.8c-.472-.16-1.1-1.144-1.287-1.184.814,1.457,3.3,2.555,4.6,2.011a5.437,5.437,0,0,1-2.046-.238c-.284-.146-.671-.45-.6-.506a5.08,5.08,0,0,0,5.153-.73c.391-.3.819-.823.942-.83-.186.28.032.135-.111.382.39-.629-.169-.256.4-1.086l.211.291c-.079-.522.648-1.156.575-1.982.167-.252.186.272.009.853.246-.644.065-.748.128-1.28a4.821,4.821,0,0,1,.2.557,2.453,2.453,0,0,1,.244-1.411c-.079-.035-.247.275-.285-.46.006-.32.089-.168.121-.246a1.413,1.413,0,0,1-.327-.751c.073-.11.194.286.293.3a7.294,7.294,0,0,1-.177-.945c-.289-.6-.1.08-.336-.259-.307-.958.255-.222.293-.658a7.7,7.7,0,0,1,.853,2.153,8.818,8.818,0,0,0-.427-1.534c.141.059-.228-1.086.184-.327a6.837,6.837,0,0,0-3.207-3.838c.162.148.367.335.294.364-.66-.393-.544-.423-.638-.589-.537-.219-.573.018-.929,0a11.023,11.023,0,0,0-2.14-.817l.042.2c-.671-.224-.782.085-1.507,0-.044-.034.232-.125.46-.158-.649.085-.618-.128-1.253.024a5.383,5.383,0,0,1,.489-.276c-.529.032-1.263.308-1.036.057A12.189,12.189,0,0,0,6.283,4.048l-.027-.181C5.862,4.34,4.538,5.28,4.433,5.893l-.105.025a11.361,11.361,0,0,0-.5,1.1c-.268.457-.393.176-.355.248A16.7,16.7,0,0,0,2.456,9.968a15.507,15.507,0,0,1,.065,2.42c-.265,4.784,3.357,9.428,7.317,10.5a7.973,7.973,0,0,0,2.177.221c-.866-.248-.978-.131-1.822-.425-.609-.287-.742-.614-1.173-.988l.171.3c-.845-.3-.492-.37-1.179-.588l.182-.238a1.567,1.567,0,0,1-.849-.706l-.3.012c-.36-.444-.552-.765-.538-1.013l-.1.172c-.11-.188-1.325-1.667-.695-1.323a1.422,1.422,0,0,1-.442-.481l.128-.147a2.442,2.442,0,0,1-.539-1.057.686.686,0,0,0,.385.3c-.766-1.9-.809-.1-1.39-1.935l.123-.01a4.078,4.078,0,0,1-.227-.447L3.808,14c-.552-.638-.154-2.712-.075-3.85A11.064,11.064,0,0,1,4.5,8.425l-.188-.032c.359-.626,2.05-2.515,2.833-2.418.379-.476-.075,0-.15-.122.833-.862,1.1-.609,1.658-.764.606-.36-.521.14-.233-.137,1.048-.268.743-.609,2.111-.745.144.082-.335.127-.455.233a5.637,5.637,0,0,1,3.992.237,5.845,5.845,0,0,1,3.089,4.487l.072.019a8.632,8.632,0,0,1-.146,2.37l.176-.37" transform="translate(-1.686 -2.109)"/>
      <path id="Path_6" data-name="Path 6" class="cls-3" d="M6.935,11.573l-.049.244a4.689,4.689,0,0,0,.7.89c-.21-.41-.366-.58-.653-1.134m.541-.021A1.932,1.932,0,0,1,7.2,11.1a3.167,3.167,0,0,0,.38.771l-.107-.316m9.567-2.079-.051.128a6.186,6.186,0,0,1-.606,1.935,6.078,6.078,0,0,0,.657-2.063M9.482.1A7.481,7.481,0,0,1,10.31,0c-.325.027-.649.044-.969.085L9.482.1M1.223,4.5c.054.5-.378.7.1.366.254-.571-.1-.158-.1-.366M.666,6.819a5.46,5.46,0,0,0,.17-.729c-.3.385-.139.467-.17.729" transform="translate(0)"/>
    </g>
    <g id="ubuntu-icon" transform="translate(316.189 490.27)">
      <ellipse id="Ellipse_2" data-name="Ellipse 2" class="cls-4" cx="2.168" cy="2.029" rx="2.168" ry="2.029" transform="translate(11.811 21.203)"/>
      <ellipse id="Ellipse_3" data-name="Ellipse 3" class="cls-5" cx="2.168" cy="2.029" rx="2.168" ry="2.029" transform="translate(26.981 29.673)"/>
      <path id="Path_7" data-name="Path 7" class="cls-4" d="M126.938,41.753A5.189,5.189,0,0,1,132.12,46.1h3.625a8.35,8.35,0,0,0-2.372-5.141,3.122,3.122,0,0,1-2.9-.072,2.92,2.92,0,0,1-1.513-2.392,9.2,9.2,0,0,0-2.025-.225,9.06,9.06,0,0,0-3.763.809l1.815,3.04A5.361,5.361,0,0,1,126.938,41.753Z" transform="translate(-102.845 -23.585)"/>
      <path id="Path_8" data-name="Path 8" class="cls-6" d="M132.108,159.387a5.189,5.189,0,0,1-5.182,4.347,5.352,5.352,0,0,1-1.949-.365l-1.815,3.04a9.056,9.056,0,0,0,3.764.809,9.218,9.218,0,0,0,2.027-.225,2.92,2.92,0,0,1,1.513-2.4,3.119,3.119,0,0,1,2.9-.071,8.351,8.351,0,0,0,2.37-5.14Z" transform="translate(-102.834 -135.439)"/>
      <path id="Path_9" data-name="Path 9" class="cls-5" d="M64.914,65.266a5,5,0,0,1,2-3.98L65.1,58.246a8.9,8.9,0,0,0-1.2.975,8.454,8.454,0,0,0-2.217,3.58,2.883,2.883,0,0,1,0,4.929,8.455,8.455,0,0,0,2.217,3.58,8.906,8.906,0,0,0,1.2.975l1.814-3.04A5,5,0,0,1,64.914,65.266Z" transform="translate(-46.056 -42.034)"/>
      <ellipse id="Ellipse_4" data-name="Ellipse 4" class="cls-6" cx="2.168" cy="2.029" rx="2.168" ry="2.029" transform="translate(26.979 12.73)"/>
    </g>
    <path id="apple-black" d="M14.638,11.435a4.757,4.757,0,0,0,2.889,4.355,11.78,11.78,0,0,1-1.49,3.061c-.9,1.311-1.828,2.618-3.3,2.645-1.441.027-1.9-.855-3.552-.855s-2.162.828-3.526.881c-1.416.054-2.494-1.418-3.4-2.724C.416,16.126-1,11.247.9,7.954a5.269,5.269,0,0,1,4.454-2.7c1.39-.027,2.7.935,3.552.935s2.444-1.157,4.12-.987A5.028,5.028,0,0,1,16.964,7.34a4.868,4.868,0,0,0-2.326,4.1m-2.709-8A4.741,4.741,0,0,0,13.049,0,4.825,4.825,0,0,0,9.878,1.631,4.5,4.5,0,0,0,8.736,4.961a3.992,3.992,0,0,0,3.193-1.524" transform="translate(298 503)"/>
  </g>
</svg>
