<svg xmlns="http://www.w3.org/2000/svg" xmlns:xlink="http://www.w3.org/1999/xlink" viewBox="0 0 679.297 798.239"><defs><style>.a{fill:#fff;}.b{fill:url(#a);}.c{fill:none;}.d{clip-path:url(#e);}</style><linearGradient id="a" x1="0.86" y1="-0.24" x2="0.483" y2="0.918" gradientUnits="objectBoundingBox"><stop offset="0" stop-color="#8929eb"/><stop offset="1" stop-color="#2cb2ed"/></linearGradient><clipPath id="e"><path class="a" d="M0,0H24V24H0Z"/></clipPath></defs><g transform="translate(-605.779 -2327.709)"><g transform="matrix(0.966, 0.259, -0.259, 0.966, 731.207, 2266.877)"><path class="b" d="M311.645,687.909c-23.039,35.187-28.8,41.369-29.792,40.418-2.185-1.664,9.136-37.089,33.764-64.193,23.237-25.677,37.935-20.922,73.486-52.306,15.889-14.027,26.217-26.628,33.764-35.663,7.349-8.8,35.353-43.271,57.6-97.478,30.785-75.367,31.778-143.365,31.778-156.917.2-37.089.4-124.107-49.653-190.2-22.84-30.432-50.05-47.788-61.569-55.159-5.561-3.566-37.14-24.964-75.472-30.432-67.925-9.986-161.272,12.6-213.109,95.1-31.579,49.928-35.75,105.8-39.126,142.651-5.561,63,4.568,111.268,7.944,126.009,4.767,20.447,19.662,84.64,63.555,140.274,72.1,91.3,161.073,81.787,166.833,137.9,3.376,31.859-22.642,64.906-23.833,64.193S300.126,716.915,311.645,687.909Z" transform="translate(0 0)"/><path class="b" d="M93.5,306.7" transform="translate(21.52 362.189)"/><path class="b" d="M216.5,319.7" transform="translate(142.812 380.097)"/><path class="b" d="M415.5,309.7" transform="translate(339.047 366.322)"/></g><g transform="translate(818 2785)"><path class="c" d="M0,0H46V46H0Z"/><path class="a" d="M36.5,2H5.833A3.828,3.828,0,0,0,2.019,5.833L2,40.333l7.667-7.667H36.5a3.845,3.845,0,0,0,3.833-3.833v-23A3.845,3.845,0,0,0,36.5,2ZM32.667,25,25,18.867V25H9.667V9.667H25V15.8l7.667-6.133Z" transform="translate(1.833 1.833)"/></g><g transform="translate(919 2488)"><path class="c" d="M0,0H108V108H0Z"/><path class="a" d="M83.25,6A24.739,24.739,0,0,0,64.17,46.5H43.83a24.742,24.742,0,1,0-19.08,9h58.5a24.75,24.75,0,0,0,0-49.5ZM24.75,46.5A15.75,15.75,0,1,1,40.5,30.75,15.767,15.767,0,0,1,24.75,46.5Zm58.5,0A15.75,15.75,0,1,1,99,30.75,15.767,15.767,0,0,1,83.25,46.5Z" transform="translate(0 21)"/></g><g transform="translate(1057 2634)"><path class="c" d="M62,62H0V0H62Z"/><path class="a" d="M52.667,3H6.167A5.556,5.556,0,0,0,1,8.167V44.333A5.182,5.182,0,0,0,6.167,49.5h46.5a5.556,5.556,0,0,0,5.167-5.167V8.167A5.556,5.556,0,0,0,52.667,3ZM11.333,39.167l9.042-11.625,6.458,7.776,9.042-11.651L47.5,39.167Z" transform="translate(1.583 4.75)"/></g><g transform="translate(771.95 2488)"><path class="a" d="M19.87,3H16.992L7.878,24.106h4.029l1.727-4.221h9.594l1.727,4.221h4.029ZM14.843,16.431,18.431,6.8l3.588,9.632Zm19.9,15.35-5.756-5.756v3.837H5V33.7H28.984v3.837Z" transform="translate(4.594 2.756)"/><path class="c" d="M0,0H46.05V46.05H0Z"/></g><g transform="translate(957 2695)"><path class="a" d="M4,34.4H16.6V30.2H4ZM37.6,5H4V9.2H37.6ZM31.3,17.6H4v4.2H31.822a4.2,4.2,0,1,1,0,8.4H27.1V26l-6.3,6.3,6.3,6.3V34.4h4.2a8.4,8.4,0,1,0,0-16.8Z" transform="translate(4.399 5.499)"/><path class="c" d="M0,0H50.4V50.4H0Z"/></g><g transform="translate(949 2418)"><path class="c" d="M0,0H44.539V44.539H0Z"/><path class="a" d="M32.692,32.548,36.4,34.4V4.712A3.722,3.722,0,0,0,32.692,1H14.116a3.707,3.707,0,0,0-3.693,3.712H28.981a3.722,3.722,0,0,1,3.712,3.712ZM25.269,8.423H6.712A3.722,3.722,0,0,0,3,12.135V41.827L15.99,36.26l12.99,5.567V12.135A3.722,3.722,0,0,0,25.269,8.423Z" transform="translate(2.567 0.856)"/></g><g class="d" transform="translate(760 2684)"><path class="a" d="M14,10H2v2H14Zm0-4H2V8H14ZM2,16h8V14H2Zm19.5-4.5L23,13l-6.99,7L11.5,15.5,13,14l3.01,3Z"/></g></g></svg>