<svg xmlns="http://www.w3.org/2000/svg" viewBox="0 0 269.43 241.7"><defs><style>.cls-1{fill:#ff917f;}.cls-1,.cls-2,.cls-3,.cls-4{stroke:#000;stroke-miterlimit:10;}.cls-2{fill:#ff684a;}.cls-3{fill:#ff482a;}.cls-4{fill:#fff;}.cls-5{fill:#762c83;}.cls-6{fill:#6e4285;}.cls-7{fill:#5488b6;}.cls-8{fill:#50a7c8;}.cls-9{fill:#68669c;}.cls-10{fill:#5787af;}.cls-11{fill:#50a7cd;}.cls-12{fill:#50abcc;}.cls-13{fill:#6a68a0;}.cls-14{fill:#4da3c1;}.cls-15{fill:#54a5c1;}.cls-16{fill:#50a5c5;}.cls-17{fill:#723e88;}.cls-18{fill:#702778;}.cls-19{fill:#4da0c0;}.cls-20{fill:#742e7e;}.cls-21{fill:#722a78;}.cls-22{fill:#4ea2c8;}.cls-23{fill:#732c7a;}.cls-24{fill:#702b7f;}.cls-25{fill:#713f8c;}.cls-26{fill:#7e2e94;}.cls-27{fill:#5587b6;}.cls-28{fill:#6764a0;}.cls-29{fill:#68669a;}.cls-30{fill:#733f8e;}.cls-31{fill:#5c8bb3;}.cls-32{fill:#4fa3c0;}.cls-33{fill:#6562a1;}.cls-34{fill:#723f8c;}.cls-35{fill:#6b689d;}.cls-36{fill:#4f8dea;}.cls-37{fill:#4ca0ca;}.cls-38{fill:#74448d;}.cls-39{fill:#686599;}.cls-40{fill:#6965aa;}.cls-41{fill:#50a5c9;}.cls-42{fill:#5986b3;}.cls-43{fill:#704088;}.cls-44{fill:#704289;}.cls-45{fill:#51a6be;}.cls-46{fill:#5786b1;}.cls-47{fill:#5f8ebd;}.cls-48{fill:#4f9ece;}.cls-49{fill:#66639d;}.cls-50{fill:#5584ac;}.cls-51{fill:#6a679a;}.cls-52{fill:#5b8aad;}.cls-53{fill:#6e3e80;}.cls-54{fill:#52aac9;}.cls-55{fill:#772d86;}</style></defs><title>bist3</title><g id="图层_2" data-name="图层 2"><g id="图层_1-2" data-name="图层 1"><polygon class="cls-1" points="260.04 66.03 262.64 45.18 256.42 40.04 260.04 66.03"/><polygon class="cls-2" points="248.24 41.99 260.04 66.03 256.42 40.04 248.24 41.99"/><polygon class="cls-3" points="259.53 30.31 256.42 40.04 262.64 45.18 262.64 35.37 259.53 30.31"/><polygon class="cls-4" points="268.87 28.75 262.64 35.37 259.53 30.31 256.42 40.04 248.24 41.99 245.9 37.74 235.39 26.41 241.23 18.63 265.37 15.13 268.87 28.75"/><polygon class="cls-4" points="230.33 4.22 248.24 0.72 256.42 5.39 265.37 15.13 241.23 18.63 230.33 4.22"/><polygon class="cls-4" points="215.54 12.79 230.33 4.22 235.39 26.41 225.27 32.25 215.54 12.79"/><polygon class="cls-4" points="196.85 33.81 215.54 12.79 225.27 32.25 215.54 45.18 196.85 33.81"/><line class="cls-4" x1="190.63" y1="53.03" x2="215.54" y2="45.18"/><polygon class="cls-4" points="213.59 66.03 215.54 45.18 190.63 53.03 213.59 66.03"/><polygon class="cls-4" points="213.59 84.03 213.59 66.03 190.63 53.03 187.12 68.53 213.59 84.03"/><polygon class="cls-4" points="187.12 90.26 213.59 84.03 187.12 68.53 187.12 90.26"/><polygon class="cls-4" points="219.82 103.1 187.12 90.26 213.59 84.03 219.82 103.1"/><polygon class="cls-4" points="190.63 116.73 219.82 103.1 187.12 90.26 190.63 116.73"/><polygon class="cls-4" points="200.36 133.08 219.82 103.1 190.63 116.73 200.36 133.08"/><polygon class="cls-4" points="238.51 133.08 219.82 103.1 200.36 133.08 238.51 133.08"/><polygon class="cls-4" points="238.51 165 238.51 133.08 200.36 133.08 211.06 155.27 238.51 165"/><polygon class="cls-4" points="225.27 179.79 213.59 165 211.06 155.27 238.51 165 225.27 179.79"/><polygon class="cls-4" points="260.04 176.68 258.37 165 238.51 133.08 260.04 176.68"/><polygon class="cls-4" points="256.42 212.46 260.04 176.68 238.51 133.08 238.51 165 256.42 212.46"/><polygon class="cls-4" points="203.08 177.71 213.59 165 225.27 179.79 203.08 177.71"/><polygon class="cls-4" points="194.51 155.27 213.59 165 203.08 177.71 194.51 155.27"/><polygon class="cls-4" points="226.88 210.68 256.42 212.46 238.51 165 225.27 179.79 226.88 210.68"/><polygon class="cls-4" points="206.99 196.72 203.08 177.71 225.27 179.79 226.88 210.68 206.99 196.72"/><polygon class="cls-4" points="219.82 239.78 226.88 210.68 256.42 212.46 219.82 239.78"/><polygon class="cls-4" points="175.21 212.46 206.99 196.72 219.82 239.78 175.21 212.46"/><polygon class="cls-4" points="226.88 210.68 219.82 239.78 206.99 196.72 226.88 210.68"/><polygon class="cls-4" points="155.01 191.37 175.21 212.46 206.99 196.72 155.01 191.37"/><polygon class="cls-4" points="181 239.78 219.82 239.78 175.21 212.46 181 239.78"/><polygon class="cls-4" points="158.28 147.12 203.08 177.71 194.51 155.27 158.28 147.12"/><polygon class="cls-4" points="173.43 176.68 206.99 196.72 155.01 191.37 173.43 176.68"/><polygon class="cls-4" points="203.08 177.71 173.43 176.68 206.99 196.72 203.08 177.71"/><polygon class="cls-4" points="187.12 167.53 173.43 176.68 203.08 177.71 187.12 167.53"/><polygon class="cls-4" points="124.72 172.62 155.01 191.37 173.43 176.68 124.72 172.62"/><polygon class="cls-4" points="149.07 160.25 173.43 176.68 187.12 167.53 158.28 147.12 149.07 160.25"/><polygon class="cls-4" points="118.71 152.56 149.07 160.25 158.28 147.12 118.71 152.56"/><polygon class="cls-4" points="99.65 140.26 118.71 152.56 141.16 149.04 109.8 138.73 99.65 140.26"/><polygon class="cls-4" points="124.72 172.62 118.71 152.56 149.07 160.25 124.72 172.62"/><polygon class="cls-4" points="173.43 176.68 124.72 172.62 149.07 160.25 173.43 176.68"/><polygon class="cls-4" points="106.41 183.92 155.01 191.37 124.72 172.62 106.41 183.92"/><polygon class="cls-4" points="90.12 179.79 81.2 199.29 124.72 172.62 90.12 179.79"/><polygon class="cls-4" points="72.9 166.49 41.55 196.72 90.12 179.79 72.9 166.49"/><polygon class="cls-4" points="124.72 172.62 72.9 166.49 90.12 179.79 124.72 172.62"/><polygon class="cls-4" points="118.71 152.56 72.9 166.49 124.72 172.62 118.71 152.56"/><polygon class="cls-4" points="67.98 160.25 106.41 145.65 118.71 152.56 67.98 160.25"/><polygon class="cls-4" points="72.9 166.49 67.98 160.25 118.71 152.56 72.9 166.49"/><polygon class="cls-4" points="52.3 173.14 72.9 166.49 67.98 160.25 52.3 173.14"/><polygon class="cls-4" points="47.39 184.23 52.3 173.14 72.9 166.49 47.39 184.23"/><polygon class="cls-4" points="20.64 201.91 41.55 196.72 72.9 166.49 20.64 201.91"/><polygon class="cls-4" points="62.6 201.91 90.12 179.79 62.6 189.38 62.6 201.91"/><polygon class="cls-4" points="136.54 203.6 155.01 191.37 175.21 212.46 136.54 203.6"/><polygon class="cls-4" points="118.71 210.68 136.54 203.6 175.21 212.46 181 239.78 146.38 219.89 118.71 210.68"/><polygon class="cls-4" points="136.54 227.58 146.38 219.89 181 239.78 136.54 227.58"/><polygon class="cls-4" points="99.65 212.46 118.71 210.68 146.38 219.89 133.89 227.58 99.65 212.46"/><polygon class="cls-4" points="93.35 239.78 133.89 227.58 181 239.78 93.35 239.78"/><polygon class="cls-4" points="48.92 235.57 99.65 212.46 133.89 227.58 93.35 239.78 48.92 235.57"/><polygon class="cls-4" points="130.71 187.65 136.54 203.6 155.01 191.37 130.71 187.65"/><polygon class="cls-4" points="104.57 194.19 134.03 196.72 130.71 187.65 104.57 194.19"/><polygon class="cls-4" points="114.1 203.6 123.02 195.77 134.03 196.72 136.54 203.6 114.1 203.6"/><polygon class="cls-4" points="99.65 212.46 62.6 201.91 34.17 229.84 99.65 212.46"/><polygon class="cls-4" points="48.92 235.57 34.17 229.84 99.65 212.46 48.92 235.57"/><polygon class="cls-4" points="62.6 201.91 62.6 189.38 20.64 201.91 62.6 201.91"/><polygon class="cls-4" points="53.68 210.68 20.64 201.91 62.6 201.91 53.68 210.68"/><polygon class="cls-4" points="29.25 214.36 45.97 218.25 53.68 210.68 20.64 201.91 29.25 214.36"/><polygon class="cls-4" points="16.95 224.01 29.25 214.36 34.17 229.84 16.95 224.01"/><polygon class="cls-4" points="0.96 203.6 16.95 224.01 29.25 214.36 20.64 201.91 0.96 203.6"/><polygon class="cls-4" points="34.17 229.84 45.97 218.25 29.25 214.36 34.17 229.84"/><polygon class="cls-4" points="259.53 30.31 241.23 18.63 245.9 37.74 259.53 30.31"/><polygon class="cls-4" points="225.27 32.25 196.85 33.81 215.54 45.18 225.27 32.25"/><path class="cls-4" d="M190.63,53l6.22-19.22Z"/><line class="cls-4" x1="213.59" y1="66.03" x2="187.12" y2="68.53"/><line class="cls-4" x1="211.06" y1="155.27" x2="238.51" y2="133.08"/><polygon class="cls-4" points="248.24 0.72 241.23 18.63 256.42 5.39 248.24 0.72"/><line class="cls-4" x1="265.37" y1="15.13" x2="259.53" y2="30.31"/><polygon class="cls-4" points="215.54 45.18 196.85 33.81 190.63 53.03 215.54 45.18"/><polygon class="cls-4" points="230.33 4.22 235.39 26.41 241.23 18.63 230.33 4.22"/><polygon class="cls-4" points="235.39 26.41 215.54 12.79 230.33 4.22 235.39 26.41"/><polygon class="cls-4" points="62.6 201.91 99.65 212.46 81.2 199.29 62.6 201.91"/><polygon class="cls-4" points="90.12 179.79 106.41 183.92 130.71 187.65 106.41 194.35 123.02 195.77 114.1 203.6 136.54 203.6 118.71 210.68 99.65 212.46 62.6 201.91 90.12 179.79"/><circle class="cls-5" cx="113.41" cy="89.95" r="13.06"/><circle class="cls-6" cx="133.63" cy="101.5" r="6.37"/><circle class="cls-7" cx="121.96" cy="111.05" r="6.37"/><circle class="cls-8" cx="106.05" cy="111.05" r="6.37"/><circle class="cls-6" cx="93.32" cy="100.44" r="6.37"/><circle class="cls-7" cx="90.14" cy="85.58" r="6.37"/><circle class="cls-8" cx="98.62" cy="70.73" r="6.37"/><circle class="cls-6" cx="113.47" cy="65.43" r="6.37"/><circle class="cls-9" cx="113.47" cy="46.33" r="6.37"/><circle class="cls-10" cx="85.89" cy="56.94" r="6.37"/><circle class="cls-11" cx="71.04" cy="82.4" r="6.37"/><circle class="cls-12" cx="76.34" cy="111.05" r="6.37"/><circle class="cls-13" cx="98.62" cy="130.14" r="6.37"/><circle class="cls-14" cx="128.33" cy="130.14" r="6.37"/><circle class="cls-15" cx="150.61" cy="111.05" r="6.37"/><circle class="cls-16" cx="155.91" cy="82.4" r="6.37"/><circle class="cls-17" cx="141.06" cy="56.94" r="6.37"/><circle class="cls-18" cx="132.57" cy="41.03" r="4.24"/><circle class="cls-19" cx="159.09" cy="64.37" r="4.24"/><circle class="cls-20" cx="165.46" cy="99.38" r="4.24"/><circle class="cls-21" cx="146.36" cy="130.14" r="4.24"/><circle class="cls-22" cx="112.41" cy="141.81" r="4.24"/><circle class="cls-23" cx="79.53" cy="130.14" r="4.24"/><circle class="cls-24" cx="61.49" cy="98.32" r="4.24"/><circle class="cls-25" cx="68.92" cy="63.31" r="4.24"/><circle class="cls-26" cx="96.5" cy="41.03" r="4.24"/><circle class="cls-27" cx="113.47" cy="27.24" r="5.3"/><circle class="cls-28" cx="153.79" cy="42.09" r="5.3"/><circle class="cls-29" cx="175.01" cy="78.16" r="5.3"/><circle class="cls-30" cx="167.58" cy="120.59" r="5.3"/><circle class="cls-31" cx="134.69" cy="148.18" r="5.3"/><circle class="cls-32" cx="92.26" cy="148.18" r="5.3"/><circle class="cls-33" cx="59.37" cy="121.65" r="5.3"/><circle class="cls-34" cx="51.94" cy="78.16" r="5.3"/><circle class="cls-35" cx="73.16" cy="42.09" r="5.3"/><circle class="cls-36" cx="55.13" cy="54.82" r="2.65"/><circle class="cls-37" cx="46.64" cy="100.44" r="2.65"/><circle class="cls-38" cx="68.92" cy="141.81" r="2.65"/><circle class="cls-39" cx="112.41" cy="157.72" r="2.65"/><circle class="cls-40" cx="156.97" cy="142.87" r="2.65"/><circle class="cls-41" cx="181.37" cy="102.56" r="2.65"/><circle class="cls-42" cx="173.95" cy="56.94" r="2.65"/><circle class="cls-43" cx="138.94" cy="26.18" r="2.65"/><circle class="cls-44" cx="91.2" cy="25.11" r="2.65"/><circle class="cls-45" cx="113.47" cy="8.14" r="3.71"/><circle class="cls-17" cx="165.46" cy="27.24" r="3.71"/><circle class="cls-46" cx="193.67" cy="76.04" r="3.71"/><circle class="cls-47" cx="184.02" cy="130.14" r="3.71"/><circle class="cls-48" cx="141.06" cy="166.31" r="3.71"/><circle class="cls-49" cx="85.89" cy="166.31" r="3.71"/><circle class="cls-50" cx="43.29" cy="130.14" r="3.71"/><circle class="cls-51" cx="33.43" cy="76.04" r="3.71"/><circle class="cls-52" cx="61.49" cy="27.24" r="3.71"/><circle class="cls-53" cx="101.81" cy="55.88" r="5.3"/><circle class="cls-54" cx="127.27" cy="55.88" r="5.3"/><circle class="cls-55" cx="145.3" cy="71.79" r="5.3"/><circle class="cls-53" cx="149.54" cy="97.25" r="5.3"/><circle class="cls-54" cx="136.81" cy="117.41" r="5.3"/><circle class="cls-55" cx="113.47" cy="125.9" r="5.3"/><circle class="cls-53" cx="90.14" cy="117.41" r="5.3"/><circle class="cls-54" cx="78.47" cy="96.19" r="5.3"/><circle class="cls-55" cx="82.71" cy="70.73" r="5.3"/><circle class="cls-7" cx="128.33" cy="71.79" r="6.37"/><circle class="cls-8" cx="136.81" cy="85.58" r="6.37"/></g></g></svg>