<svg xmlns="http://www.w3.org/2000/svg" xmlns:xlink="http://www.w3.org/1999/xlink" viewBox="0 0 400 565">
  <defs>
    <style>
      .cls-1 {
        fill: url(#linear-gradient);
      }

      .cls-2 {
        fill: rgba(57,144,163,0.79);
      }

      .cls-3, .cls-4 {
        fill: #dbefef;
      }

      .cls-3 {
        font-size: 30px;
        font-family: HelveticaNeue-Medium, Helvetica Neue;
        font-weight: 500;
      }

      .cls-4 {
        font-size: 20px;
        font-family: HelveticaNeue, Helvetica Neue;
      }
    </style>
    <linearGradient id="linear-gradient" x1="1.075" y1="-0.545" x2="0.163" y2="0.961" gradientUnits="objectBoundingBox">
      <stop offset="0" stop-color="#47ce66"/>
      <stop offset="0.419" stop-color="#43c5b2"/>
      <stop offset="1" stop-color="#41bfe5"/>
    </linearGradient>
  </defs>
  <g id="Group_440" data-name="Group 440" transform="translate(-1869 -422)">
    <g id="Group_431" data-name="Group 431">
      <rect id="Rectangle_35" data-name="Rectangle 35" class="cls-1" width="400" height="565" rx="5" transform="translate(1869 422)"/>
      <g id="Group_427" data-name="Group 427" transform="translate(1267 58.132)">
        <path id="Path_278" data-name="Path 278" class="cls-2" d="M2737.315,650l-45.2,21.133,45.2,20.854,45.026-20.854Z" transform="translate(-2063.115 2.988)"/>
        <path id="Path_279" data-name="Path 279" class="cls-2" d="M2737.315,650l-45.2,21.133,45.2,20.854,45.026-20.854Z" transform="translate(-1882.569 2.988)"/>
        <path id="Path_280" data-name="Path 280" class="cls-2" d="M2737.315,650l-45.2,21.133,45.2,20.854,45.026-20.854Z" transform="translate(-1972.842 2.988)"/>
        <path id="Path_281" data-name="Path 281" class="cls-2" d="M2737.315,650l-45.2,21.133,45.2,20.854,45.026-20.854Z" transform="translate(-1972.842 44.975)"/>
        <path id="Path_282" data-name="Path 282" class="cls-2" d="M2737.315,650l-45.2,21.133,45.2,20.854,45.026-20.854Z" transform="translate(-2063.115 -39)"/>
        <path id="Path_283" data-name="Path 283" class="cls-2" d="M2737.315,650l-45.2,21.133,45.2,20.854,45.026-20.854Z" transform="translate(-1972.842 -39)"/>
      </g>
    </g>
    <g id="Group_437" data-name="Group 437" transform="translate(997 -705)">
      <text id="Compilers_Principle_2018_Fall" data-name="Compilers Principle
2018 Fall" class="cls-3" transform="translate(900 1218)"><tspan x="0" y="0">2018 CS</tspan><tspan x="0" y="37">Courses</tspan></text>
      <text id="UPDATES_Sep_3_2018" data-name="UPDATES
Sep 3, 2018" class="cls-4" transform="translate(900 1613)"><tspan x="0" y="0">UPDATES</tspan><tspan x="0" y="24">Sep 26, 2018</tspan></text>
    </g>
  </g>
</svg>
