<svg xmlns="http://www.w3.org/2000/svg" xmlns:xlink="http://www.w3.org/1999/xlink" viewBox="0 0 400 565">
  <defs>
    <style>
      .cls-1 {
        fill: url(#radial-gradient);
      }

      .cls-2 {
        fill: #8e929b;
      }

      .cls-3, .cls-4 {
        fill: #dbefef;
      }

      .cls-3 {
        font-size: 30px;
        font-family: HelveticaNeue-Medium, Helvetica Neue;
        font-weight: 500;
      }

      .cls-4 {
        font-size: 20px;
        font-family: HelveticaNeue, Helvetica Neue;
      }
    </style>
    <radialGradient id="radial-gradient" cx="0.5" cy="0.5" r="0.574" gradientTransform="matrix(1.41, 0.058, -0.115, 1.41, -0.147, -0.234)" gradientUnits="objectBoundingBox">
      <stop offset="0" stop-color="#454b5c"/>
      <stop offset="1" stop-color="#030303" stop-opacity="0.839"/>
    </radialGradient>
  </defs>
  <g id="Group_442" data-name="Group 442" transform="translate(-875 -422)">
    <g id="Group_429" data-name="Group 429">
      <rect id="Rectangle_33" data-name="Rectangle 33" class="cls-1" width="400" height="565" rx="5" transform="translate(875 422)"/>
      <g id="Group_423" data-name="Group 423" transform="translate(272 58.132)">
        <path id="Path_278" data-name="Path 278" class="cls-2" d="M2737.315,650l-45.2,21.133,45.2,20.854,45.026-20.854Z" transform="translate(-2063.115 2.988)"/>
        <path id="Path_279" data-name="Path 279" class="cls-2" d="M2737.315,650l-45.2,21.133,45.2,20.854,45.026-20.854Z" transform="translate(-1882.569 2.988)"/>
        <path id="Path_280" data-name="Path 280" class="cls-2" d="M2737.315,650l-45.2,21.133,45.2,20.854,45.026-20.854Z" transform="translate(-1972.842 2.988)"/>
        <path id="Path_281" data-name="Path 281" class="cls-2" d="M2737.315,650l-45.2,21.133,45.2,20.854,45.026-20.854Z" transform="translate(-1972.842 44.975)"/>
        <path id="Path_282" data-name="Path 282" class="cls-2" d="M2737.315,650l-45.2,21.133,45.2,20.854,45.026-20.854Z" transform="translate(-2063.115 -39)"/>
        <path id="Path_283" data-name="Path 283" class="cls-2" d="M2737.315,650l-45.2,21.133,45.2,20.854,45.026-20.854Z" transform="translate(-1972.842 -39)"/>
      </g>
    </g>
    <g id="Group_434" data-name="Group 434" transform="translate(0 -705)">
      <text id="Program_Languages_2018_" data-name="Program Languages
2018 ~" class="cls-3" transform="translate(900 1218)"><tspan x="0" y="0">Program Languages</tspan><tspan x="0" y="37">2018 ~</tspan></text>
      <text id="UPDATES_Sep_3_2018" data-name="UPDATES
Sep 3, 2018" class="cls-4" transform="translate(900 1613)"><tspan x="0" y="0">UPDATES</tspan><tspan x="0" y="24">Sep 3, 2018</tspan></text>
    </g>
  </g>
</svg>
