<svg xmlns="http://www.w3.org/2000/svg" viewBox="0 0 271.52 367.19"><defs><style>.cls-1,.cls-2{fill:#fff;stroke:#000;stroke-miterlimit:10;stroke-width:0.25px;}.cls-1{opacity:0.89;}</style></defs><title>muschel_logo_white</title><g id="图层_2" data-name="图层 2"><g id="图层_1-2" data-name="图层 1"><path class="cls-1" d="M57.43,52.08s1.16-1.58,4-.55c10.91,4,38.89,16.56,47.12,22.71,3.67,2.75,8,6,12.45,10q1.84,1.63,3.72,3.43a93.69,93.69,0,0,1,22.54,33c9.65,24.22,13.72,60.5,9.79,72.15-3,8.93-20.16-38-36.5-57.93-3.1-3.78-8.5-7.44-13.52-10.47-4.31-2.61-8.33-4.74-10.38-6.07-8.86-5.74-17.53-7.67-21.4-9.51l-6.68-3.18c-1.5-.72-5.23-3.39-6.39-4.09-.87-.53,1,1.28-.67-1-4-5.46-5.73-11-7.22-23.7-.78-6.7-.64-11.88.46-16.55.61-2.57.38-5.86,2.7-8.22Z"/><path class="cls-1" d="M140.13.35s1.41-1,3.24,1.27c7.07,8.87,24.47,33.9,28.77,43.68,6,13.61,15.07,35,14.54,63.19s-9.29,65.76-16.14,75.44c-5.25,7.43-3-46.57-9.06-73.54-1.14-5.12-4.09-11.17-6.95-16.43-2.46-4.51-4.85-8.43-6-10.66-4.93-9.66-11-15.49-13.33-19.06l-4.1-6.15c-.91-1.38-2.9-5.7-3.56-6.91-.5-.92.33,1.7-.2-1.27-1.27-7.18-.81-13.37,2.22-26.6,1.6-6.95,3.41-12,5.79-16.08,1.31-2.26,2.21-5.6,4.77-6.88Z"/><path class="cls-1" d="M10.08,128.23s.34-1.7,3-1.82c10.44-.48,38.11.17,47.19,2.39,12.63,3.09,32.26,8.24,49.4,24.83s34.43,45.11,35.69,56.07c1,8.4-31.06-24.37-52-35.1-4-2-9.79-3.19-15-3.95-4.52-.65-8.62-1-10.8-1.4-9.44-1.66-17.25-.25-21.13-.43l-6.67-.31c-1.49-.07-5.57-1-6.78-1.16-.91-.13,1.29.72-.92-.57-5.35-3.12-8.88-7-15-17-3.21-5.25-5.08-9.57-6-13.8-.49-2.33-1.95-5-1-7.72Z"/><path class="cls-1" d="M.16,211.3s-.4-1.38,1.7-2.35c8.16-3.76,30.53-12.27,38.67-13.56,11.32-1.81,29.06-4.35,49.32,2.45s45.36,22.48,50.71,30.25c4.09,6-34.47-8.08-55.49-9.27-4-.23-9.09.8-13.59,2-3.87,1-7.3,2-9.19,2.47-8.2,1.83-13.89,5.42-17.06,6.55l-5.45,1.94c-1.23.43-4.84,1.08-5.88,1.34-.79.2,1.31.12-1-.12-5.51-.59-9.88-2.37-18.72-7.84A41.06,41.06,0,0,1,4,216.75C2.66,215.17.45,213.68.16,211.3Z"/><path class="cls-1" d="M30.07,288.92s-.93-.87.21-2.57c4.41-6.57,17.33-23.23,22.85-27.91,7.68-6.52,19.83-16.52,38.13-20.53s44.27-3.47,51.82,0c5.79,2.69-29.55,9.49-45.86,18.13-3.1,1.64-6.46,4.75-9.32,7.67-2.46,2.5-4.54,4.87-5.77,6.06-5.33,5.12-8,10.44-9.82,12.74l-3.21,4c-.73.89-3.15,3-3.81,3.7-.5.5,1-.51-.78.34-4.4,2-8.5,2.68-17.62,2.53a35.77,35.77,0,0,1-11.48-1.73c-1.71-.6-4-.74-5.34-2.42Z"/><path class="cls-1" d="M84.76,346.93s-1.22-.21-1.25-2.19c-.1-7.65,1-28,2.88-34.71,2.54-9.35,6.74-23.89,19.16-36.88s33.5-26.37,41.46-27.56c6.11-.91-18.39,23.4-26.67,39.06-1.57,3-2.54,7.27-3.22,11.15-.58,3.33-1,6.35-1.28,8-1.43,7-.6,12.67-.82,15.52l-.38,4.9c-.09,1.1-.85,4.12-1,5-.12.68.56-1-.43.69-2.39,4-5.32,6.69-12.7,11.42A33.81,33.81,0,0,1,90.37,346c-1.7.42-3.64,1.55-5.61.89Z"/><path class="cls-1" d="M159.11,367s-1.06.5-2.11-1.09c-4.05-6.15-13.73-23.26-15.81-29.72-2.88-9-7.17-23.1-4.26-40.48s12.34-39.86,17.92-45.22c4.28-4.11-2.14,29.12-.44,46.39.32,3.27,1.8,7.29,3.29,10.81,1.28,3,2.57,5.68,3.15,7.17,2.51,6.44,6.12,10.6,7.43,13l2.25,4.19c.51.94,1.49,3.8,1.83,4.62.25.61-.07-1.09,0,.8.22,4.56-.66,8.36-3.94,16.26a33.91,33.91,0,0,1-5.43,9.42c-1.1,1.28-2,3.27-3.9,3.82Z"/><path class="cls-1" d="M217.78,350.55s-.7.87-2.26,0c-6-3.5-21.44-13.92-25.89-18.52-6.2-6.39-15.73-16.52-20.42-32.43s-5.88-38.86-3.3-45.72c2-5.27,10.21,25.51,18.82,39.39A37.74,37.74,0,0,0,192,301c2.35,2,4.56,3.73,5.67,4.74,4.83,4.4,9.66,6.41,11.79,7.92l3.67,2.6c.82.58,2.85,2.59,3.48,3.14.47.41-.51-.89.34.66,2.09,3.77,2.9,7.35,3.35,15.4a31.61,31.61,0,0,1-.77,10.23c-.42,1.54-.39,3.61-1.78,4.86Z"/><path class="cls-1" d="M261,303.18s-.19,1-1.8,1.06c-6.23.21-22.74-.39-28.18-1.78-7.57-1.93-19.32-5.13-29.68-15.11s-20.89-27-21.72-33.56c-.64-5,18.72,14.71,31.32,21.24a32,32,0,0,0,9,2.45c2.7.42,5.15.67,6.46.91,5.64,1.06,10.3.28,12.61.42l4,.23c.9.06,3.33.62,4.06.74.55.09-.77-.44.55.35,3.22,1.89,5.36,4.24,9.08,10.22a26.38,26.38,0,0,1,3.67,8.24c.32,1.39,1.2,3,.63,4.59Z"/><path class="cls-1" d="M271.38,258.74s.19.83-1,1.39c-4.73,2.17-17.66,7-22.31,7.73-6.47,1-16.58,2.3-27.85-2s-25-14-27.8-18.69c-2.14-3.62,19.27,5.22,31.14,6.16a26.92,26.92,0,0,0,7.75-1c2.22-.55,4.19-1.15,5.28-1.38,4.7-1,8-3.11,9.86-3.76l3.14-1.1c.71-.25,2.78-.6,3.37-.75s-.74-.08.55.09c3.1.41,5.52,1.53,10.36,4.9a22.44,22.44,0,0,1,5.55,5.13c.69,1,1.9,1.88,2,3.31Z"/><path class="cls-1" d="M261.42,217.66s.43.55-.31,1.4c-2.85,3.27-11,11.43-14.36,13.58-4.61,3-11.89,7.53-22,8.28s-24.11-1.62-27.92-4.15c-2.92-2,16.62-2.88,26-6.35a22.89,22.89,0,0,0,5.58-3.48c1.51-1.19,2.81-2.33,3.56-2.89,3.24-2.4,5.05-5.13,6.22-6.24l2-1.93c.46-.43,1.92-1.42,2.32-1.74s-.59.2.45-.12c2.52-.79,4.77-.81,9.68,0a19.39,19.39,0,0,1,6.06,1.86c.87.48,2.12.74,2.7,1.77Z"/><path class="cls-1" d="M242.52,192s.51.31.23,1.21c-1.1,3.47-4.64,12.44-6.46,15.15-2.53,3.77-6.58,9.59-14.07,13.24s-18.91,5.94-22.65,5.06c-2.87-.68,11.71-7.29,17.75-12.89a18.13,18.13,0,0,0,3.1-4.46c.76-1.4,1.37-2.7,1.76-3.36,1.68-2.9,2.15-5.62,2.68-6.87l.9-2.14c.2-.48,1-1.71,1.2-2.08s-.39.33.29-.24c1.67-1.38,3.38-2.07,7.39-2.89a15,15,0,0,1,5.23-.33c.83.11,1.86-.05,2.65.6Z"/><path class="cls-1" d="M217.94,176.44s.43,0,.47.72c.17,2.8.14,10.33-.37,12.93A35.83,35.83,0,0,1,212,205c-4.11,5.64-11.21,12-14,13-2.12.76,6-9.86,8.6-16.19a17,17,0,0,0,.92-4.31c.14-1.26.22-2.4.3-3a31.33,31.33,0,0,0,0-5.75l0-1.82c0-.42.22-1.57.26-1.91s-.17.39.14-.29c.76-1.63,1.73-2.82,4.22-5.07a14.12,14.12,0,0,1,3.45-2.44c.59-.27,1.25-.82,1.95-.72Z"/><path class="cls-1" d="M197.21,172.42s.32-.13.57.37a60.11,60.11,0,0,1,3.73,9.35,25.94,25.94,0,0,1,.11,12.3c-1.32,5.18-4.65,11.72-6.4,13.21-1.35,1.13,1.42-8.73,1.4-14a12.75,12.75,0,0,0-.64-3.34c-.29-.94-.59-1.77-.71-2.23a23.19,23.19,0,0,0-1.78-4.11l-.54-1.32c-.11-.3-.32-1.18-.39-1.43s0,.32,0-.25a11.14,11.14,0,0,1,1.59-4.81,10.49,10.49,0,0,1,1.82-2.71c.35-.35.67-.93,1.23-1.05Z"/><path class="cls-2" d="M180,176.3s.2-.2.55.1a49.66,49.66,0,0,1,5.84,6,22.1,22.1,0,0,1,4.07,9.41c.68,4.4.28,10.5-.57,12.2-.65,1.31-1.75-7.16-3.46-11.18a10.36,10.36,0,0,0-1.57-2.35c-.52-.63-1-1.17-1.26-1.49a18.94,18.94,0,0,0-2.67-2.57l-.83-.84c-.19-.19-.63-.81-.77-1s.1.26-.06-.19a9.37,9.37,0,0,1-.36-4.2,8.94,8.94,0,0,1,.5-2.67c.15-.39.21-.93.59-1.2Z"/><path class="cls-2" d="M167.09,187.09s.11-.24.52-.18a39.67,39.67,0,0,1,6.89,1.76,14.31,14.31,0,0,1,6.37,5.15c1.9,3,3.36,7.7,3.12,9.36-.18,1.27-3.66-4.53-6.35-6.75a7.48,7.48,0,0,0-2.08-1c-.65-.23-1.24-.41-1.55-.53a15.82,15.82,0,0,0-3.11-.69l-1-.24c-.21-.06-.78-.32-1-.38s.17.15-.11-.11a6,6,0,0,1-1.56-3,6.23,6.23,0,0,1-.36-2.22,2.1,2.1,0,0,1,.16-1.17Z"/></g></g></svg>