<svg xmlns="http://www.w3.org/2000/svg" xmlns:xlink="http://www.w3.org/1999/xlink" viewBox="0 0 400 565">
  <defs>
    <style>
      .cls-1 {
        fill: url(#linear-gradient);
      }

      .cls-2 {
        fill: rgba(71,43,172,0.65);
      }
    </style>
    <linearGradient id="linear-gradient" x1="0.069" y1="0.155" x2="0.964" y2="0.968" gradientUnits="objectBoundingBox">
      <stop offset="0" stop-color="#7647ce"/>
      <stop offset="0.159" stop-color="#6265d7" stop-opacity="0.937"/>
      <stop offset="0.821" stop-color="#2161bf" stop-opacity="0.867"/>
      <stop offset="1" stop-color="#4394e5" stop-opacity="0.839"/>
    </linearGradient>
  </defs>
  <g id="Group_430" data-name="Group 430" transform="translate(-1372 -422)">
    <rect id="Rectangle_34" data-name="Rectangle 34" class="cls-1" width="400" height="565" rx="5" transform="translate(1372 422)"/>
    <g id="Group_426" data-name="Group 426" transform="translate(768 58.132)">
      <path id="Path_278" data-name="Path 278" class="cls-2" d="M2737.315,650l-45.2,21.133,45.2,20.854,45.026-20.854Z" transform="translate(-2063.115 2.988)"/>
      <path id="Path_279" data-name="Path 279" class="cls-2" d="M2737.315,650l-45.2,21.133,45.2,20.854,45.026-20.854Z" transform="translate(-1882.569 2.988)"/>
      <path id="Path_280" data-name="Path 280" class="cls-2" d="M2737.315,650l-45.2,21.133,45.2,20.854,45.026-20.854Z" transform="translate(-1972.842 2.988)"/>
      <path id="Path_281" data-name="Path 281" class="cls-2" d="M2737.315,650l-45.2,21.133,45.2,20.854,45.026-20.854Z" transform="translate(-1972.842 44.975)"/>
      <path id="Path_282" data-name="Path 282" class="cls-2" d="M2737.315,650l-45.2,21.133,45.2,20.854,45.026-20.854Z" transform="translate(-2063.115 -39)"/>
      <path id="Path_283" data-name="Path 283" class="cls-2" d="M2737.315,650l-45.2,21.133,45.2,20.854,45.026-20.854Z" transform="translate(-1972.842 -39)"/>
    </g>
  </g>
</svg>
