<svg xmlns="http://www.w3.org/2000/svg" xmlns:xlink="http://www.w3.org/1999/xlink" viewBox="0 0 400 565">
  <defs>
    <style>
      .cls-1 {
        fill: url(#linear-gradient);
      }

      .cls-2 {
        fill: #fff;
      }
    </style>
    <linearGradient id="linear-gradient" x1="0.867" y1="0.082" x2="0.116" y2="0.954" gradientUnits="objectBoundingBox">
      <stop offset="0" stop-color="#cd7de5" stop-opacity="0.816"/>
      <stop offset="0.31" stop-color="#6992d5" stop-opacity="0.82"/>
      <stop offset="0.555" stop-color="#e2a282" stop-opacity="0.667"/>
      <stop offset="0.829" stop-color="#e67070" stop-opacity="0.749"/>
      <stop offset="1" stop-color="#9edbe6"/>
    </linearGradient>
  </defs>
  <g id="Group_423" data-name="Group 423" transform="translate(-378 -422)">
    <rect id="Rectangle_32" data-name="Rectangle 32" class="cls-1" width="400" height="565" rx="5" transform="translate(378 422)"/>
    <g id="Group_422" data-name="Group 422" transform="translate(-223 58.132)">
      <path id="Path_278" data-name="Path 278" class="cls-2" d="M2737.315,650l-45.2,21.133,45.2,20.854,45.026-20.854Z" transform="translate(-2063.115 2.988)"/>
      <path id="Path_279" data-name="Path 279" class="cls-2" d="M2737.315,650l-45.2,21.133,45.2,20.854,45.026-20.854Z" transform="translate(-1882.569 2.988)"/>
      <path id="Path_280" data-name="Path 280" class="cls-2" d="M2737.315,650l-45.2,21.133,45.2,20.854,45.026-20.854Z" transform="translate(-1972.842 2.988)"/>
      <path id="Path_281" data-name="Path 281" class="cls-2" d="M2737.315,650l-45.2,21.133,45.2,20.854,45.026-20.854Z" transform="translate(-1972.842 44.975)"/>
      <path id="Path_282" data-name="Path 282" class="cls-2" d="M2737.315,650l-45.2,21.133,45.2,20.854,45.026-20.854Z" transform="translate(-2063.115 -39)"/>
      <path id="Path_283" data-name="Path 283" class="cls-2" d="M2737.315,650l-45.2,21.133,45.2,20.854,45.026-20.854Z" transform="translate(-1972.842 -39)"/>
    </g>
  </g>
</svg>
