<svg xmlns="http://www.w3.org/2000/svg" viewBox="0 0 269.43 241.7"><defs><style>.cls-1{isolation:isolate;}.cls-2{fill:#ff917f;}.cls-2,.cls-3,.cls-4,.cls-5{stroke:#000;stroke-miterlimit:10;}.cls-3{fill:#ff684a;}.cls-4{fill:#ff482a;}.cls-5{fill:#fff;}.cls-6{fill:#a527bd;}.cls-14,.cls-6,.cls-7{mix-blend-mode:color;}.cls-7{fill:#ff7384;}.cls-8{fill:#67158e;}.cls-9{fill:#ec3441;}.cls-10{fill:#650c47;}.cls-11{fill:#a728be;}.cls-12{fill:#a51803;}.cls-13{fill:#ed430a;}.cls-14{fill:#ffa71d;}</style></defs><title>pathology</title><g class="cls-1"><g id="图层_2" data-name="图层 2"><g id="图层_1-2" data-name="图层 1"><polygon class="cls-2" points="260.04 66.03 262.64 45.18 256.42 40.04 260.04 66.03"/><polygon class="cls-3" points="248.24 41.99 260.04 66.03 256.42 40.04 248.24 41.99"/><polygon class="cls-4" points="259.53 30.31 256.42 40.04 262.64 45.18 262.64 35.37 259.53 30.31"/><polygon class="cls-5" points="268.87 28.75 262.64 35.37 259.53 30.31 256.42 40.04 248.24 41.99 245.9 37.74 235.39 26.41 241.23 18.63 265.37 15.13 268.87 28.75"/><polygon class="cls-5" points="230.33 4.22 248.24 0.72 256.42 5.39 265.37 15.13 241.23 18.63 230.33 4.22"/><polygon class="cls-5" points="215.54 12.79 230.33 4.22 235.39 26.41 225.27 32.25 215.54 12.79"/><polygon class="cls-5" points="196.85 33.81 215.54 12.79 225.27 32.25 215.54 45.18 196.85 33.81"/><line class="cls-5" x1="190.63" y1="53.03" x2="215.54" y2="45.18"/><polygon class="cls-5" points="213.59 66.03 215.54 45.18 190.63 53.03 213.59 66.03"/><polygon class="cls-5" points="213.59 84.03 213.59 66.03 190.63 53.03 187.12 68.53 213.59 84.03"/><polygon class="cls-5" points="187.12 90.26 213.59 84.03 187.12 68.53 187.12 90.26"/><polygon class="cls-5" points="219.82 103.1 187.12 90.26 213.59 84.03 219.82 103.1"/><polygon class="cls-5" points="190.63 116.73 219.82 103.1 187.12 90.26 190.63 116.73"/><polygon class="cls-5" points="200.36 133.08 219.82 103.1 190.63 116.73 200.36 133.08"/><polygon class="cls-5" points="238.51 133.08 219.82 103.1 200.36 133.08 238.51 133.08"/><polygon class="cls-5" points="238.51 165 238.51 133.08 200.36 133.08 211.06 155.27 238.51 165"/><polygon class="cls-5" points="225.27 179.79 213.59 165 211.06 155.27 238.51 165 225.27 179.79"/><polygon class="cls-5" points="260.04 176.68 258.37 165 238.51 133.08 260.04 176.68"/><polygon class="cls-5" points="256.42 212.46 260.04 176.68 238.51 133.08 238.51 165 256.42 212.46"/><polygon class="cls-5" points="203.08 177.71 213.59 165 225.27 179.79 203.08 177.71"/><polygon class="cls-5" points="194.51 155.27 213.59 165 203.08 177.71 194.51 155.27"/><polygon class="cls-5" points="226.88 210.68 256.42 212.46 238.51 165 225.27 179.79 226.88 210.68"/><polygon class="cls-5" points="206.99 196.72 203.08 177.71 225.27 179.79 226.88 210.68 206.99 196.72"/><polygon class="cls-5" points="219.82 239.78 226.88 210.68 256.42 212.46 219.82 239.78"/><polygon class="cls-5" points="175.21 212.46 206.99 196.72 219.82 239.78 175.21 212.46"/><polygon class="cls-5" points="226.88 210.68 219.82 239.78 206.99 196.72 226.88 210.68"/><polygon class="cls-5" points="155.01 191.37 175.21 212.46 206.99 196.72 155.01 191.37"/><polygon class="cls-5" points="181 239.78 219.82 239.78 175.21 212.46 181 239.78"/><polygon class="cls-5" points="158.28 147.12 203.08 177.71 194.51 155.27 158.28 147.12"/><polygon class="cls-5" points="173.43 176.68 206.99 196.72 155.01 191.37 173.43 176.68"/><polygon class="cls-5" points="203.08 177.71 173.43 176.68 206.99 196.72 203.08 177.71"/><polygon class="cls-5" points="187.12 167.53 173.43 176.68 203.08 177.71 187.12 167.53"/><polygon class="cls-5" points="124.72 172.62 155.01 191.37 173.43 176.68 124.72 172.62"/><polygon class="cls-5" points="149.07 160.25 173.43 176.68 187.12 167.53 158.28 147.12 149.07 160.25"/><polygon class="cls-5" points="118.71 152.56 149.07 160.25 158.28 147.12 118.71 152.56"/><polygon class="cls-5" points="99.65 140.26 118.71 152.56 141.16 149.04 109.8 138.73 99.65 140.26"/><polygon class="cls-5" points="124.72 172.62 118.71 152.56 149.07 160.25 124.72 172.62"/><polygon class="cls-5" points="173.43 176.68 124.72 172.62 149.07 160.25 173.43 176.68"/><polygon class="cls-5" points="106.41 183.92 155.01 191.37 124.72 172.62 106.41 183.92"/><polygon class="cls-5" points="90.12 179.79 81.2 199.29 124.72 172.62 90.12 179.79"/><polygon class="cls-5" points="72.9 166.49 41.55 196.72 90.12 179.79 72.9 166.49"/><polygon class="cls-5" points="124.72 172.62 72.9 166.49 90.12 179.79 124.72 172.62"/><polygon class="cls-5" points="118.71 152.56 72.9 166.49 124.72 172.62 118.71 152.56"/><polygon class="cls-5" points="67.98 160.25 106.41 145.65 118.71 152.56 67.98 160.25"/><polygon class="cls-5" points="72.9 166.49 67.98 160.25 118.71 152.56 72.9 166.49"/><polygon class="cls-5" points="52.3 173.14 72.9 166.49 67.98 160.25 52.3 173.14"/><polygon class="cls-5" points="47.39 184.23 52.3 173.14 72.9 166.49 47.39 184.23"/><polygon class="cls-5" points="20.64 201.91 41.55 196.72 72.9 166.49 20.64 201.91"/><polygon class="cls-5" points="62.6 201.91 90.12 179.79 62.6 189.38 62.6 201.91"/><polygon class="cls-5" points="136.54 203.6 155.01 191.37 175.21 212.46 136.54 203.6"/><polygon class="cls-5" points="118.71 210.68 136.54 203.6 175.21 212.46 181 239.78 146.38 219.89 118.71 210.68"/><polygon class="cls-5" points="136.54 227.58 146.38 219.89 181 239.78 136.54 227.58"/><polygon class="cls-5" points="99.65 212.46 118.71 210.68 146.38 219.89 133.89 227.58 99.65 212.46"/><polygon class="cls-5" points="93.35 239.78 133.89 227.58 181 239.78 93.35 239.78"/><polygon class="cls-5" points="48.92 235.57 99.65 212.46 133.89 227.58 93.35 239.78 48.92 235.57"/><polygon class="cls-5" points="130.71 187.65 136.54 203.6 155.01 191.37 130.71 187.65"/><polygon class="cls-5" points="104.57 194.19 134.03 196.72 130.71 187.65 104.57 194.19"/><polygon class="cls-5" points="114.1 203.6 123.02 195.77 134.03 196.72 136.54 203.6 114.1 203.6"/><polygon class="cls-5" points="99.65 212.46 62.6 201.91 34.17 229.84 99.65 212.46"/><polygon class="cls-5" points="48.92 235.57 34.17 229.84 99.65 212.46 48.92 235.57"/><polygon class="cls-5" points="62.6 201.91 62.6 189.38 20.64 201.91 62.6 201.91"/><polygon class="cls-5" points="53.68 210.68 20.64 201.91 62.6 201.91 53.68 210.68"/><polygon class="cls-5" points="29.25 214.36 45.97 218.25 53.68 210.68 20.64 201.91 29.25 214.36"/><polygon class="cls-5" points="16.95 224.01 29.25 214.36 34.17 229.84 16.95 224.01"/><polygon class="cls-5" points="0.96 203.6 16.95 224.01 29.25 214.36 20.64 201.91 0.96 203.6"/><polygon class="cls-5" points="34.17 229.84 45.97 218.25 29.25 214.36 34.17 229.84"/><polygon class="cls-5" points="259.53 30.31 241.23 18.63 245.9 37.74 259.53 30.31"/><polygon class="cls-5" points="225.27 32.25 196.85 33.81 215.54 45.18 225.27 32.25"/><path class="cls-5" d="M190.63,53l6.22-19.22Z"/><line class="cls-5" x1="213.59" y1="66.03" x2="187.12" y2="68.53"/><line class="cls-5" x1="211.06" y1="155.27" x2="238.51" y2="133.08"/><polygon class="cls-5" points="248.24 0.72 241.23 18.63 256.42 5.39 248.24 0.72"/><line class="cls-5" x1="265.37" y1="15.13" x2="259.53" y2="30.31"/><polygon class="cls-5" points="215.54 45.18 196.85 33.81 190.63 53.03 215.54 45.18"/><polygon class="cls-5" points="230.33 4.22 235.39 26.41 241.23 18.63 230.33 4.22"/><polygon class="cls-5" points="235.39 26.41 215.54 12.79 230.33 4.22 235.39 26.41"/><polygon class="cls-5" points="62.6 201.91 99.65 212.46 81.2 199.29 62.6 201.91"/><polygon class="cls-5" points="90.12 179.79 106.41 183.92 130.71 187.65 106.41 194.35 123.02 195.77 114.1 203.6 136.54 203.6 118.71 210.68 99.65 212.46 62.6 201.91 90.12 179.79"/><path class="cls-6" d="M48.76,78c-1.09,3.12,2,7.87,6.62,9.61,2.84,1.07,12.52-2.25,16-.09,5.1,3.14,3.84,12,5.14,14.26,5,8.49,20.39,7.75,21.13-3.52.53-8.17-11-17.31-11-21.55C86.73,66.66,97.2,65.48,94,52.05s-23.05-13.71-30-5c-3.4,4.28-.75,11.13-3.1,16.67C58.49,69.54,51,71.5,48.76,78Z"/><path class="cls-7" d="M81,93.87c1.77-1.31,7.37-2.4,11.73.1s7.51,8.58,12,10.27c6.44,2.41,10.7-2.13,15.56.66,2.53,1.45,5.81,5.84,5.18,10-.66,4.29-5.34,8.33-9.5,9.94-8.17,3.17-12.66-.37-18.66,3.06s-9.85,17.38-17.82,14.84-3.74-17-3.74-17a51.07,51.07,0,0,0,2.35-12C78.7,106.77,76.65,97.1,81,93.87Z"/><path class="cls-6" d="M148.74,97.78c2.16-1.6,4.52-2.63,6.13-2.17,3.29.94,3.15,1.14,6.65,4.43,2.06,1.93,3.63,9.12,7.12,14,4.55,6.35,11.86,8.12,12.05,12.48.24,5.21-3.46,8.7-7.86,11.64-4.18,2.78-8,2.81-12-.53-3.21-2.7-2-9-4.78-16.86-1.51-4.22-5.48-7.38-7.2-11.11C146.55,104.67,145.91,99.87,148.74,97.78Z"/><circle class="cls-8" cx="79.18" cy="55.51" r="8.48"/><circle class="cls-9" cx="81.4" cy="26.44" r="4.24"/><circle class="cls-10" cx="51.7" cy="60.17" r="3.03"/><circle class="cls-10" cx="161.01" cy="79.39" r="4"/><circle class="cls-8" cx="57.35" cy="79.96" r="4.84"/><circle class="cls-11" cx="62.01" cy="107.44" r="7.26"/><circle class="cls-11" cx="161.01" cy="151.44" r="3.5"/><circle class="cls-10" cx="86.12" cy="99.3" r="4.84"/><circle class="cls-12" cx="117.57" cy="112.69" r="4.84"/><circle class="cls-9" cx="83.87" cy="130.09" r="4.84"/><circle class="cls-10" cx="104.3" cy="137.29" r="3.63"/><circle class="cls-10" cx="154.51" cy="104.8" r="4.24"/><circle class="cls-13" cx="137.63" cy="90.8" r="4.24"/><circle class="cls-13" cx="115.77" cy="82.94" r="4.24"/><circle class="cls-9" cx="136.5" cy="121.84" r="6.05"/><circle class="cls-9" cx="124.5" cy="146.84" r="3.5"/><circle class="cls-8" cx="168.77" cy="128.46" r="6.66"/><path class="cls-14" d="M139.39,81.73c-2.37-.76-6.68,1.85-8.76,5.57-1.28,2.28,0,9.86-2.23,12.72-3.29,4.14-10.32,3.42-12.33,4.53-7.61,4.2-9.23,16.44-.18,16.66,6.55.17,15.65-9.3,19.09-9.42,8.18-.27,7.63,8,19,5.07s14.46-18.73,8.35-24c-3-2.56-8.94-.24-13.09-1.94C144.89,89.19,144.37,83.33,139.39,81.73Z"/></g></g></g></svg>