<svg xmlns="http://www.w3.org/2000/svg" viewBox="0 0 611.08 546.56"><defs><style>.cls-1{fill:#ff917f;}.cls-1,.cls-2,.cls-3,.cls-4{stroke:#000;stroke-miterlimit:10;}.cls-2{fill:#ff684a;}.cls-3{fill:#ff482a;}.cls-4{fill:#fff;}</style></defs><title>swangeese</title><g id="图层_2" data-name="图层 2"><g id="图层_1-2" data-name="图层 1"><polygon class="cls-1" points="590.43 149.31 596.36 101.87 582.18 90.18 590.43 149.31"/><polygon class="cls-2" points="563.58 94.61 590.43 149.31 582.18 90.18 563.58 94.61"/><polygon class="cls-3" points="589.27 68.04 582.18 90.18 596.36 101.87 596.36 79.55 589.27 68.04"/><polygon class="cls-4" points="610.53 64.49 596.36 79.55 589.27 68.04 582.18 90.18 563.58 94.61 558.27 84.95 534.35 59.18 547.64 41.47 602.55 33.49 610.53 64.49"/><polygon class="cls-4" points="522.84 8.69 563.58 0.72 582.18 11.35 602.55 33.49 547.64 41.47 522.84 8.69"/><polygon class="cls-4" points="489.18 28.18 522.84 8.69 534.35 59.18 511.32 72.47 489.18 28.18"/><polygon class="cls-4" points="446.67 76.01 489.18 28.18 511.32 72.47 489.18 101.87 446.67 76.01"/><line class="cls-4" x1="432.49" y1="119.74" x2="489.18" y2="101.87"/><polygon class="cls-4" points="484.75 149.31 489.18 101.87 432.5 119.74 484.75 149.31"/><polygon class="cls-4" points="484.75 190.27 484.75 149.31 432.5 119.74 424.52 155 484.75 190.27"/><polygon class="cls-4" points="424.52 204.44 484.75 190.27 424.52 155 424.52 204.44"/><polygon class="cls-4" points="498.93 233.67 424.52 204.44 484.75 190.27 498.93 233.67"/><polygon class="cls-4" points="432.5 264.67 498.93 233.67 424.52 204.44 432.5 264.67"/><polygon class="cls-4" points="454.64 301.87 498.93 233.67 432.5 264.67 454.64 301.87"/><polygon class="cls-4" points="541.44 301.87 498.93 233.67 454.64 301.87 541.44 301.87"/><polygon class="cls-4" points="541.44 374.5 541.44 301.87 454.64 301.87 479 352.36 541.44 374.5"/><polygon class="cls-4" points="511.32 408.16 484.75 374.5 479 352.36 541.44 374.5 511.32 408.16"/><polygon class="cls-4" points="590.43 401.07 586.63 374.5 541.44 301.87 590.43 401.07"/><polygon class="cls-4" points="582.18 482.48 590.43 401.07 541.44 301.87 541.44 374.5 582.18 482.48"/><polygon class="cls-4" points="460.84 403.41 484.75 374.5 511.32 408.16 460.84 403.41"/><polygon class="cls-4" points="441.34 352.36 484.75 374.5 460.84 403.41 441.34 352.36"/><polygon class="cls-4" points="515 478.42 582.18 482.48 541.44 374.5 511.32 408.16 515 478.42"/><polygon class="cls-4" points="469.72 446.66 460.84 403.41 511.32 408.16 515 478.42 469.72 446.66"/><polygon class="cls-4" points="498.93 544.65 515 478.42 582.18 482.48 498.93 544.65"/><polygon class="cls-4" points="397.42 482.48 469.72 446.66 498.93 544.65 397.42 482.48"/><polygon class="cls-4" points="515 478.42 498.93 544.65 469.72 446.66 515 478.42"/><polygon class="cls-4" points="351.46 434.5 397.42 482.48 469.72 446.66 351.46 434.5"/><polygon class="cls-4" points="410.59 544.65 498.93 544.65 397.42 482.48 410.59 544.65"/><polygon class="cls-4" points="358.9 333.81 460.84 403.41 441.34 352.36 358.9 333.81"/><polygon class="cls-4" points="393.36 401.07 469.72 446.66 351.46 434.5 393.36 401.07"/><polygon class="cls-4" points="460.84 403.41 393.36 401.07 469.72 446.66 460.84 403.41"/><polygon class="cls-4" points="424.52 380.26 393.36 401.07 460.84 403.41 424.52 380.26"/><polygon class="cls-4" points="282.54 391.84 351.46 434.5 393.36 401.07 282.54 391.84"/><polygon class="cls-4" points="337.95 363.69 393.36 401.07 424.52 380.26 358.9 333.81 337.95 363.69"/><polygon class="cls-4" points="268.87 346.2 337.95 363.69 358.9 333.81 268.87 346.2"/><polygon class="cls-4" points="225.5 318.22 268.87 346.2 319.94 338.19 248.59 314.72 225.5 318.22"/><polygon class="cls-4" points="282.54 391.84 268.87 346.2 337.95 363.69 282.54 391.84"/><polygon class="cls-4" points="393.36 401.07 282.54 391.84 337.95 363.69 393.36 401.07"/><polygon class="cls-4" points="240.89 417.55 351.46 434.5 282.54 391.84 240.89 417.55"/><polygon class="cls-4" points="203.82 408.16 183.53 452.52 282.54 391.84 203.82 408.16"/><polygon class="cls-4" points="164.65 377.89 93.3 446.66 203.82 408.16 164.65 377.89"/><polygon class="cls-4" points="282.54 391.84 164.65 377.89 203.82 408.16 282.54 391.84"/><polygon class="cls-4" points="268.87 346.2 164.65 377.89 282.54 391.84 268.87 346.2"/><polygon class="cls-4" points="153.46 363.69 240.89 330.46 268.87 346.2 153.46 363.69"/><polygon class="cls-4" points="164.65 377.89 153.46 363.69 268.87 346.2 164.65 377.89"/><polygon class="cls-4" points="117.78 393.02 164.65 377.89 153.46 363.69 117.78 393.02"/><polygon class="cls-4" points="106.59 418.25 117.78 393.02 164.65 377.89 106.59 418.25"/><polygon class="cls-4" points="45.73 458.49 93.3 446.66 164.65 377.89 45.73 458.49"/><polygon class="cls-4" points="141.21 458.49 203.82 408.16 141.21 429.97 141.21 458.49"/><polygon class="cls-4" points="309.44 462.32 351.46 434.5 397.42 482.48 309.44 462.32"/><polygon class="cls-4" points="268.87 478.42 309.44 462.32 397.42 482.48 410.59 544.65 331.83 499.39 268.87 478.42"/><polygon class="cls-4" points="309.44 516.88 331.83 499.39 410.59 544.65 309.44 516.88"/><polygon class="cls-4" points="225.5 482.48 268.87 478.42 331.83 499.39 303.41 516.88 225.5 482.48"/><polygon class="cls-4" points="211.16 544.65 303.41 516.88 410.59 544.65 211.16 544.65"/><polygon class="cls-4" points="110.09 535.07 225.5 482.48 303.41 516.88 211.16 544.65 110.09 535.07"/><polygon class="cls-4" points="296.18 426.02 309.44 462.32 351.46 434.5 296.18 426.02"/><polygon class="cls-4" points="236.69 440.92 303.72 446.66 296.18 426.02 236.69 440.92"/><polygon class="cls-4" points="258.38 462.32 278.67 444.51 303.72 446.66 309.44 462.32 258.38 462.32"/><polygon class="cls-4" points="225.5 482.48 141.21 458.49 76.51 522.02 225.5 482.48"/><polygon class="cls-4" points="110.09 535.07 76.51 522.02 225.5 482.48 110.09 535.07"/><polygon class="cls-4" points="141.21 458.49 141.21 429.97 45.73 458.49 141.21 458.49"/><polygon class="cls-4" points="120.91 478.42 45.73 458.49 141.21 458.49 120.91 478.42"/><polygon class="cls-4" points="65.32 486.8 103.36 495.65 120.91 478.42 45.73 458.49 65.32 486.8"/><polygon class="cls-4" points="37.34 508.77 65.32 486.8 76.51 522.02 37.34 508.77"/><polygon class="cls-4" points="0.96 462.32 37.34 508.77 65.32 486.8 45.73 458.49 0.96 462.32"/><polygon class="cls-4" points="76.51 522.02 103.36 495.65 65.32 486.8 76.51 522.02"/><polygon class="cls-4" points="589.27 68.04 547.64 41.47 558.27 84.95 589.27 68.04"/><polygon class="cls-4" points="511.32 72.47 446.67 76.01 489.18 101.87 511.32 72.47"/><path class="cls-4" d="M432.49,119.74,446.67,76Z"/><line class="cls-4" x1="484.75" y1="149.31" x2="424.52" y2="155.01"/><line class="cls-4" x1="479" y1="352.36" x2="541.44" y2="301.87"/><polygon class="cls-4" points="563.58 0.72 547.64 41.47 582.18 11.35 563.58 0.72"/><line class="cls-4" x1="602.56" y1="33.49" x2="589.27" y2="68.04"/><polygon class="cls-4" points="489.18 101.87 446.67 76.01 432.5 119.74 489.18 101.87"/><polygon class="cls-4" points="522.84 8.69 534.35 59.18 547.64 41.47 522.84 8.69"/><polygon class="cls-4" points="534.35 59.18 489.18 28.18 522.84 8.69 534.35 59.18"/><polygon class="cls-4" points="141.21 458.49 225.5 482.48 183.53 452.52 141.21 458.49"/><polygon class="cls-4" points="203.82 408.16 240.89 417.55 296.18 426.02 240.89 441.28 278.67 444.51 258.38 462.32 309.44 462.32 268.87 478.42 225.5 482.48 141.21 458.49 203.82 408.16"/></g></g></svg>