<svg xmlns="http://www.w3.org/2000/svg" xmlns:xlink="http://www.w3.org/1999/xlink" viewBox="0 0 640 600.61"><defs><style>.a{fill:url(#a);}.b,.c,.d,.e{fill:#fff;}.b{font-size:43px;font-family:GillSans-SemiBold, Gill Sans;font-weight:600;}.d{font-size:25px;}.d,.e{font-family:GillSans, Gill Sans;}.e{font-size:40px;}.f,.g{stroke:none;}.g{fill:#707070;}</style><linearGradient id="a" x1="0.707" y1="0.236" x2="0.236" y2="0.962" gradientUnits="objectBoundingBox"><stop offset="0" stop-color="#3e87d1"/><stop offset="1" stop-color="#8c38e0"/></linearGradient></defs><g transform="translate(0 -1713.39)"><g class="a" transform="translate(-259 1518)"><path class="f" d="M 395.0000915527344 795.50048828125 C 394.1731872558594 795.50048828125 393.5004272460938 794.8277587890625 393.5004272460938 794.0008544921875 L 393.5004272460938 763.3900146484375 L 393.5004272460938 762.8900146484375 L 393.0004272460938 762.8900146484375 L 382.0006103515625 762.8898315429688 L 381.5006103515625 762.8898315429688 L 381.5006103515625 763.3898315429688 L 381.5006103515625 794.5004272460938 C 381.5006103515625 795.0518188476562 381.0518493652344 795.50048828125 380.5001831054688 795.50048828125 C 379.9486694335938 795.50048828125 379.5000305175781 795.0518188476562 379.5000305175781 794.5004272460938 L 379.5000305175781 763.3900146484375 L 379.5000305175781 762.8900146484375 L 379.0000305175781 762.8900146484375 L 368.0000915527344 762.8898315429688 L 367.5000915527344 762.8898315429688 L 367.5000915527344 763.3898315429688 L 367.5000915527344 795.0006103515625 C 367.5000915527344 795.2762451171875 367.2758483886719 795.50048828125 367.0001831054688 795.50048828125 C 366.724609375 795.50048828125 366.5004272460938 795.2762451171875 366.5004272460938 795.0006103515625 L 366.5004272460938 763.3900146484375 L 366.5004272460938 762.8900146484375 L 366.0004272460938 762.8900146484375 L 259.5001831054688 762.8898315429688 L 259.5001831054688 195.8899993896484 L 615.0006103515625 195.8900909423828 C 632.48876953125 195.8900909423828 650.0022583007812 197.4945068359375 667.054443359375 200.6588287353516 C 683.7024536132812 203.7488403320312 700.156005859375 208.3699188232422 715.9581909179688 214.3936614990234 L 716.17529296875 214.4765014648438 L 716.3785400390625 214.3639221191406 C 719.7611083984375 212.4906616210938 723.6071166992188 211.5005035400391 727.5006103515625 211.5005035400391 C 730.2164916992188 211.5005035400391 732.8757934570312 211.9695892333984 735.404541015625 212.8947448730469 C 737.8478393554688 213.7886657714844 740.1087646484375 215.0849151611328 742.124267578125 216.7474975585938 C 746.1725463867188 220.0858306884766 748.9801635742188 224.7383422851562 750.0302124023438 229.8481750488281 L 750.076904296875 230.0757446289062 L 750.281005859375 230.1867523193359 C 768.1301879882812 239.89599609375 784.9939575195312 251.5790863037109 800.4037475585938 264.9114990234375 C 815.7474365234375 278.1879272460938 829.7009887695312 293.1440734863281 841.8768310546875 309.3646545410156 L 842.0380859375 309.5794067382812 L 842.3060913085938 309.5636596679688 C 843.0281982421875 309.5211791992188 843.7665405273438 309.4996643066406 844.5006103515625 309.4996643066406 C 849.6300048828125 309.4996643066406 854.6051025390625 310.5301818847656 859.2875366210938 312.5625 C 863.8120727539062 314.5263366699219 867.8757934570312 317.3375854492188 871.3657836914062 320.9181823730469 C 874.8573608398438 324.5003356933594 877.5980224609375 328.6711730957031 879.5118408203125 333.3146667480469 C 881.49462890625 338.1234130859375 882.4999389648438 343.2323303222656 882.4999389648438 348.499755859375 C 882.4999389648438 355.9266662597656 880.4584350585938 363.1495971679688 876.5962524414062 369.3874206542969 L 876.4605712890625 369.6065063476562 L 876.5602416992188 369.843994140625 C 883.690673828125 386.84765625 889.1646728515625 404.628173828125 892.830322265625 422.6916809082031 C 896.592529296875 441.2254333496094 898.5001220703125 460.3015747070312 898.5001220703125 479.3904113769531 C 898.5001220703125 511.8412475585938 893.0638427734375 543.6622314453125 882.3423461914062 573.9694213867188 C 877.1650390625 588.60400390625 870.7188720703125 602.9238891601562 863.1829223632812 616.5313110351562 C 855.7758178710938 629.9071044921875 847.2097778320312 642.7868041992188 837.7189331054688 654.8184814453125 C 837.1134643554688 654.7947998046875 836.5076904296875 654.7828369140625 835.9146118164062 654.7828369140625 C 827.5896606445312 654.7828369140625 818.3941040039062 657.0371704101562 809.322021484375 661.3021850585938 C 804.7210693359375 663.464599609375 800.1712036132812 666.133056640625 795.7987060546875 669.2335815429688 C 791.2978515625 672.4241943359375 786.9791259765625 676.0784912109375 782.9622802734375 680.0950317382812 C 776.331787109375 686.7256469726562 770.8131713867188 694.01611328125 766.5596923828125 701.763916015625 C 764.5159301757812 705.4859008789062 762.7880249023438 709.285888671875 761.4239501953125 713.058349609375 C 760.09814453125 716.727294921875 759.1073608398438 720.3922119140625 758.4777221679688 723.9559936523438 C 737.2179565429688 736.4552612304688 714.4166259765625 746.11572265625 690.7032470703125 752.6704711914062 C 666.1707763671875 759.4515991210938 640.70068359375 762.8898315429688 615.0006103515625 762.8898315429688 L 397.0000305175781 762.8898315429688 L 396.5000305175781 762.8898315429688 L 396.5000305175781 763.3898315429688 L 396.5000305175781 794.0008544921875 C 396.5000305175781 794.8277587890625 395.8271789550781 795.50048828125 395.0000915527344 795.50048828125 Z"/><path class="g" d="M 395.0000915527344 795.00048828125 C 395.5514221191406 795.00048828125 396.0000305175781 794.5520629882812 396.0000305175781 794.0008544921875 L 396.0000305175781 763.3898315429688 L 396.0000305175781 762.3898315429688 L 397.0000305175781 762.3898315429688 L 615.0006103515625 762.3898315429688 C 640.6557006835938 762.3898315429688 666.0809326171875 758.9576416015625 690.5701293945312 752.1885986328125 C 714.1674194335938 745.6658935546875 736.860595703125 736.0618896484375 758.0260620117188 723.641357421875 C 758.6622314453125 720.1211547851562 759.6463623046875 716.5061645507812 760.9536743164062 712.8882446289062 C 762.3265991210938 709.0916137695312 764.0652465820312 705.267822265625 766.1214599609375 701.5232543945312 C 770.3975830078125 693.7340087890625 775.9447631835938 686.405517578125 782.6087646484375 679.7413940429688 C 786.6453247070312 675.705078125 790.98583984375 672.0325317382812 795.509521484375 668.82568359375 C 799.906005859375 665.7081909179688 804.481689453125 663.024658203125 809.109375 660.8496704101562 C 818.2474975585938 656.5535888671875 827.5166625976562 654.2828369140625 835.9146118164062 654.2828369140625 C 836.430908203125 654.2828369140625 836.95654296875 654.2918090820312 837.4833984375 654.3095703125 C 846.8944091796875 642.356689453125 855.3927612304688 629.566650390625 862.7455444335938 616.2890625 C 870.2681274414062 602.7057495117188 876.7027587890625 588.4112548828125 881.8709106445312 573.8026733398438 C 892.5734252929688 543.5491943359375 898.0001220703125 511.7843322753906 898.0001220703125 479.3904113769531 C 898.0001220703125 460.3349304199219 896.0958251953125 441.2921752929688 892.34033203125 422.7911682128906 C 888.6812133789062 404.759765625 883.2169189453125 387.0108337402344 876.0991821289062 370.0374145507812 L 875.8999633789062 369.562255859375 L 876.1710815429688 369.1242370605469 C 879.984375 362.9655151367188 881.9999389648438 355.8336791992188 881.9999389648438 348.499755859375 C 881.9999389648438 343.298095703125 881.0072631835938 338.2532653808594 879.0494995117188 333.5052490234375 C 877.16015625 328.9209289550781 874.4545288085938 324.8034973144531 871.0077514648438 321.2671813964844 C 867.5633544921875 317.7333374023438 863.5531005859375 314.9590148925781 859.0884399414062 313.0211791992188 C 854.4691772460938 311.0162658691406 849.5611572265625 309.9996643066406 844.5006103515625 309.9996643066406 C 843.7761840820312 309.9996643066406 843.0477905273438 310.0209045410156 842.33544921875 310.062744140625 L 841.7993774414062 310.0943298339844 L 841.4769897460938 309.6648254394531 C 829.322509765625 293.47265625 815.3934326171875 278.5427551269531 800.0765991210938 265.2896728515625 C 784.69384765625 251.9806671142578 767.85986328125 240.3180847167969 750.0421142578125 230.6259155273438 L 749.6339111328125 230.4039154052734 L 749.5404052734375 229.9487457275391 C 748.5132446289062 224.9504241943359 745.7666015625 220.399169921875 741.8060913085938 217.1332550048828 C 739.8343505859375 215.5067443847656 737.6227416992188 214.2387542724609 735.232666015625 213.3642578125 C 732.7591552734375 212.4593353271484 730.1576538085938 212.0005035400391 727.5006103515625 212.0005035400391 C 723.6915893554688 212.0005035400391 719.929443359375 212.968994140625 716.6207885742188 214.8013305664062 L 716.2142944335938 215.0264129638672 L 715.7800903320312 214.8609161376953 C 700.0060424804688 208.8478393554688 683.5816040039062 204.2350006103516 666.9632568359375 201.1504974365234 C 649.9410400390625 197.9916687011719 632.458251953125 196.3900909423828 615.0006103515625 196.3900909423828 L 260.0001831054688 196.3899993896484 L 260.0001831054688 762.3898315429688 L 366.0004272460938 762.3900146484375 L 367.0000915527344 762.3900146484375 L 367.0000915527344 762.3898315429688 L 368.0000915527344 762.3898315429688 L 379.0000305175781 762.3900146484375 L 380.0000305175781 762.3900146484375 L 380.0000305175781 763.3900146484375 L 380.0000305175781 794.5004272460938 C 380.0000305175781 794.7761840820312 380.2243347167969 795.00048828125 380.5001831054688 795.00048828125 C 380.7760925292969 795.00048828125 381.0006103515625 794.7761840820312 381.0006103515625 794.5004272460938 L 381.0006103515625 763.3898315429688 L 381.0006103515625 762.3898315429688 L 382.0006103515625 762.3898315429688 L 393.0004272460938 762.3900146484375 L 394.0004272460938 762.3900146484375 L 394.0004272460938 763.3900146484375 L 394.0004272460938 794.0008544921875 C 394.0004272460938 794.5520629882812 394.4488525390625 795.00048828125 395.0000915527344 795.00048828125 M 395.0000915527344 796.00048828125 C 393.8974304199219 796.00048828125 393.0004272460938 795.103515625 393.0004272460938 794.0008544921875 L 393.0004272460938 763.3900146484375 L 382.0006103515625 763.3898315429688 L 382.0006103515625 794.5004272460938 C 382.0006103515625 795.3275146484375 381.3274230957031 796.00048828125 380.5001831054688 796.00048828125 C 379.6730041503906 796.00048828125 379.0000305175781 795.3275146484375 379.0000305175781 794.5004272460938 L 379.0000305175781 763.3900146484375 L 368.0000915527344 763.3898315429688 L 368.0000915527344 795.0006103515625 C 368.0000915527344 795.5519409179688 367.551513671875 796.00048828125 367.0001831054688 796.00048828125 C 366.4489440917969 796.00048828125 366.0004272460938 795.5519409179688 366.0004272460938 795.0006103515625 L 366.0004272460938 763.3900146484375 L 259.0001831054688 763.3898315429688 L 259.0001831054688 195.3899993896484 L 615.0006103515625 195.3900909423828 C 632.519287109375 195.3900909423828 650.0633544921875 196.9973297119141 667.1456909179688 200.1672515869141 C 683.8228759765625 203.2626647949219 700.3057861328125 207.8919219970703 716.1362915039062 213.9264984130859 C 719.5929565429688 212.0122528076172 723.52294921875 211.0005035400391 727.5006103515625 211.0005035400391 C 730.2753295898438 211.0005035400391 732.9923706054688 211.4798278808594 735.5762939453125 212.4251708984375 C 738.0729370117188 213.3385772705078 740.3831176757812 214.6630859375 742.4424438476562 216.3618316650391 C 746.578369140625 219.7724151611328 749.447021484375 224.5261688232422 750.5199584960938 229.7474975585938 C 768.4006958007812 239.4739227294922 785.2943725585938 251.1778411865234 800.73095703125 264.5334167480469 C 816.1018676757812 277.8333435058594 830.0797729492188 292.8157653808594 842.2767944335938 309.0645141601562 C 843.010986328125 309.0213317871094 843.7594604492188 308.9996643066406 844.5006103515625 308.9996643066406 C 849.6990356445312 308.9996643066406 854.7410278320312 310.0440979003906 859.486572265625 312.1038208007812 C 864.071044921875 314.0936584472656 868.1882934570312 316.9418334960938 871.723876953125 320.5691833496094 C 875.2599487304688 324.1970825195312 878.0358276367188 328.4212646484375 879.97412109375 333.1241760253906 C 881.9819946289062 337.9938354492188 882.9999389648438 343.1669311523438 882.9999389648438 348.499755859375 C 882.9999389648438 356.0196533203125 880.9326171875 363.3335876464844 877.0213623046875 369.6506652832031 C 884.1646118164062 386.6849060058594 889.6483764648438 404.4973449707031 893.3203735351562 422.5922546386719 C 897.089111328125 441.1583251953125 899.0001220703125 460.2680053710938 899.0001220703125 479.3904113769531 C 899.0001220703125 511.8982543945312 893.55419921875 543.7753295898438 882.8136596679688 574.1361694335938 C 877.6270751953125 588.7969360351562 871.1694946289062 603.1421508789062 863.620361328125 616.7735595703125 C 856.1591186523438 630.2470703125 847.5233764648438 643.2189331054688 837.953125 655.3287353515625 C 837.27294921875 655.2984008789062 836.5874633789062 655.2828369140625 835.9146118164062 655.2828369140625 C 827.6627807617188 655.2828369140625 818.540771484375 657.520751953125 809.5347900390625 661.754638671875 C 804.96044921875 663.9046020507812 800.436279296875 666.55810546875 796.0879516601562 669.6414184570312 C 791.609619140625 672.8161010742188 787.3124389648438 676.4522705078125 783.3158569335938 680.4486083984375 C 776.7186889648438 687.0458374023438 771.2285766601562 694.29833984375 766.998046875 702.0045166015625 C 764.9664916992188 705.7041625976562 763.2493286132812 709.4804077148438 761.8941040039062 713.2283325195312 C 760.55029296875 716.947265625 759.5530395507812 720.6619873046875 758.9305419921875 724.2696533203125 C 737.5753784179688 736.8485107421875 714.665283203125 746.5657348632812 690.8364868164062 753.1524047851562 C 666.2607421875 759.9454345703125 640.7457885742188 763.3898315429688 615.0006103515625 763.3898315429688 L 397.0000305175781 763.3898315429688 L 397.0000305175781 794.0008544921875 C 397.0000305175781 795.103515625 396.1028442382812 796.00048828125 395.0000915527344 796.00048828125 Z"/></g><text class="b" transform="translate(149 1815)"><tspan x="0" y="41">Beautiful Themes</tspan></text><rect class="c" width="324" height="4" rx="2" transform="translate(138 1868)"/><rect class="c" width="239" height="3" rx="1.5" transform="translate(138 1883)"/><rect class="c" width="154" height="2" rx="1" transform="translate(138 1897)"/><g transform="translate(2006 1575.5) rotate(90)"><rect class="c" width="324" height="4" rx="2" transform="translate(138 1868)"/><rect class="c" width="239" height="3" rx="1.5" transform="translate(138 1883)"/><rect class="c" width="154" height="2" rx="1" transform="translate(138 1897)"/></g><text class="d" transform="translate(149 1933)"><tspan x="0" y="23">We offer you 6 internal themes.</tspan><tspan x="0" y="52">You can design your own beautiful theme.</tspan><tspan x="0" y="81">And You can share your theme with your</tspan><tspan x="0" y="110">firends…</tspan></text><text class="e" transform="translate(138 2123)"><tspan x="0" y="37">Theme of</tspan></text></g></svg>